<?xml version="1.0" encoding="UTF-8" standalone="no"?><!DOCTYPE svg PUBLIC "-//W3C//DTD SVG 1.1//EN" "http://www.w3.org/Graphics/SVG/1.1/DTD/svg11.dtd"><svg width="100%" height="100%" viewBox="0 0 988 986" version="1.1" xmlns="http://www.w3.org/2000/svg" xmlns:xlink="http://www.w3.org/1999/xlink" xml:space="preserve" xmlns:serif="http://www.serif.com/" style="fill-rule:evenodd;clip-rule:evenodd;stroke-linejoin:round;stroke-miterlimit:2;"><g id="g34"><ellipse cx="494" cy="492.541" rx="494" ry="492.541" style="fill:#5a3faf;"/><path id="path24" d="M524.692,839.191c-0.287,-0.464 2.864,-5.839 7.002,-11.945c10.646,-15.708 18.238,-27.863 23.244,-37.212c2.377,-4.439 6.154,-11.488 8.393,-15.666c4.64,-8.656 8.493,-16.393 8.493,-17.058c-0,-0.248 1.029,-2.707 2.286,-5.464c1.258,-2.757 3.872,-8.858 5.811,-13.558c1.938,-4.7 4.277,-10.254 5.197,-12.343c2.122,-4.818 2.45,-5.769 9.572,-27.772c4.545,-14.041 6.282,-18.277 7.496,-18.277c0.868,-0 5.608,0.878 10.532,1.951c4.924,1.072 11.089,2.353 13.7,2.845c9.509,1.794 26.509,6.073 44.922,11.309c18.183,5.17 45.886,15.315 62.553,22.908c2.191,0.998 4.227,1.814 4.525,1.814c1.033,0 10.956,6.919 10.956,7.639c0,1.524 -22.845,23.529 -34.18,32.925c-12.238,10.142 -36.017,26.933 -46.05,32.515c-3.133,1.744 -7.192,4.019 -9.02,5.057c-4.975,2.825 -21.506,11.114 -22.165,11.114c-0.316,0 -3.469,1.319 -7.007,2.931c-3.538,1.613 -7.714,3.514 -9.281,4.226c-6.109,2.776 -38.566,12.725 -49.372,15.134c-6.267,1.397 -12.633,2.935 -14.147,3.417c-1.514,0.482 -4.265,0.877 -6.114,0.877c-1.849,0 -5.737,0.427 -8.641,0.949c-10.012,1.8 -18.179,2.535 -18.705,1.684Zm-81.996,-1.641c-1.828,-0.394 -6.955,-1.252 -11.393,-1.905c-4.439,-0.654 -11.275,-2.04 -15.192,-3.081c-3.916,-1.04 -8.616,-2.218 -10.444,-2.617c-7.277,-1.588 -15.163,-3.936 -24.211,-7.208c-5.223,-1.889 -11.874,-4.21 -14.782,-5.157c-2.908,-0.948 -8.463,-3.218 -12.344,-5.045c-3.88,-1.828 -10.901,-5.128 -15.601,-7.335c-22.021,-10.341 -50.323,-29.025 -71.21,-47.011c-11.561,-9.957 -32.851,-30.733 -33.541,-32.732c-0.29,-0.84 8.47,-5.152 17.4,-8.564c1.045,-0.399 3.459,-1.41 5.366,-2.247c1.907,-0.836 3.727,-1.521 4.046,-1.521c0.318,0 2.39,-0.834 4.603,-1.854c10.702,-4.931 50.06,-18.099 54.065,-18.089c0.889,0.002 2.598,-0.389 3.798,-0.87c2.614,-1.049 19.076,-5.195 26.392,-6.648c2.873,-0.57 9.709,-1.876 15.192,-2.902l9.969,-1.866l1.662,1.978c0.914,1.088 1.661,2.501 1.661,3.141c0,1.434 11.594,36.593 13.793,41.827c0.878,2.089 2.363,5.507 3.301,7.596c0.938,2.089 3.92,9.11 6.627,15.604c2.708,6.493 6.325,14.397 8.04,17.565c1.714,3.167 5.465,10.245 8.335,15.728c8.667,16.558 17.83,31.456 28.762,46.762l5.256,7.358l-3.114,-0.095c-1.712,-0.053 -4.608,-0.418 -6.436,-0.812l0,-0Zm37.801,-33.986c-8.635,-12.405 -14.86,-22.071 -18.582,-28.855c-10.641,-19.394 -16.321,-30.571 -19.716,-38.795c-1.401,-3.394 -3.314,-7.88 -4.25,-9.969c-4.3,-9.593 -6.877,-16.414 -12.33,-32.632c-4.321,-12.853 -5.584,-17.721 -4.802,-18.503c2.229,-2.229 61.016,-4.397 90.096,-3.322c16.769,0.619 43.878,2.196 45.482,2.645c1.204,0.336 -9.084,32.555 -13.519,42.339c-1.189,2.623 -3.744,8.605 -5.677,13.293c-4.758,11.533 -6.154,14.752 -7.612,17.543c-0.682,1.306 -3.783,7.287 -6.892,13.293c-8.3,16.033 -10.06,19.017 -20.33,34.474c-11.767,17.708 -12.444,18.63 -13.717,18.666c-0.575,0.018 -4.243,-4.563 -8.151,-10.177Zm289.312,-113.704c-4.689,-2.869 -8.974,-5.217 -9.524,-5.217c-1.162,0 -14.719,-5.626 -27.526,-11.422c-13.007,-5.887 -55.754,-19.859 -75.483,-24.671c-6.658,-1.624 -11.98,-2.821 -17.09,-3.844c-5.818,-1.163 -9.17,-1.86 -20.765,-4.316l-7.948,-1.684l0.599,-4.803c0.33,-2.642 0.98,-6.726 1.446,-9.076c2.74,-13.82 4.049,-21.155 4.829,-27.06c0.483,-3.656 1.338,-9.851 1.9,-13.767c2.085,-14.527 3.954,-35.141 4.679,-51.607c0.565,-12.823 1.069,-17.154 2.069,-17.788c1.859,-1.177 214.205,-1.126 214.933,0.051c0.63,1.02 -1.893,27.515 -3.258,34.213c-0.479,2.35 -1.358,7.05 -1.952,10.445c-2.819,16.081 -10.791,44.876 -15.641,56.493c-0.655,1.567 -2.384,5.839 -3.843,9.495c-4.097,10.261 -13.007,28.631 -17.883,36.87c-2.421,4.09 -4.402,7.658 -4.402,7.928c-0,0.426 -16.243,24.997 -16.514,24.982c-0.056,-0.003 -3.938,-2.353 -8.626,-5.222l-0,-0Zm-565.761,-5.454c-13.179,-17.476 -33.539,-58.415 -41.428,-83.303c-7.041,-22.215 -11.069,-39.389 -13.696,-58.405c-2.653,-19.205 -3.302,-27.458 -2.259,-28.722c1.283,-1.554 200.148,-1.754 203.046,-0.203c1.644,0.879 1.836,2.072 1.836,11.359c0,10.025 0.353,14.542 3.378,43.202c1.949,18.469 4.178,33.564 7.571,51.271c3.123,16.296 3.145,16.506 1.879,17.556c-0.631,0.524 -3.242,1.366 -5.801,1.87c-2.559,0.505 -7.644,1.588 -11.299,2.408c-3.656,0.819 -8.569,1.845 -10.919,2.278c-7.695,1.42 -41.521,10.399 -46.999,12.476c-1.044,0.396 -6.812,2.291 -12.818,4.211c-9.033,2.889 -18.421,6.428 -36.554,13.778c-1.045,0.424 -4.368,1.883 -7.385,3.242c-3.016,1.36 -5.906,2.472 -6.421,2.472c-0.515,0 -1.679,0.398 -2.585,0.885c-2.024,1.085 -16.044,6.711 -16.726,6.711c-0.271,-0 -1.54,-1.389 -2.82,-3.086l0,-0Zm202.88,-53.09c-0.553,-0.697 -1.256,-2.976 -1.564,-5.065c-0.307,-2.089 -1.257,-7.43 -2.111,-11.868c-0.854,-4.439 -1.879,-10.634 -2.278,-13.768c-0.399,-3.133 -1.616,-12.533 -2.704,-20.888c-2.985,-22.927 -6.279,-63.904 -5.229,-65.039c0.242,-0.261 42.81,-0.474 94.596,-0.474l94.155,-0l-0.003,13.292c-0.007,14.147 -1.564,35.613 -3.764,51.836c-0.736,5.434 -1.602,12.016 -1.923,14.627c-0.995,8.092 -5.363,31.158 -6.563,34.656c-1.335,3.889 0.422,3.782 -22.875,1.404c-30.927,-3.157 -114.299,-1.914 -135.828,2.024c-1.845,0.338 -3.269,0.069 -3.907,-0.737l-0.002,0Zm-260.746,-161.563c-1.408,-3.669 4.418,-41.949 9.418,-61.88c4.631,-18.459 8.139,-29.416 15.504,-48.423c2.727,-7.038 12.129,-26.47 17.456,-36.079c2.605,-4.7 5.202,-9.4 5.77,-10.444c0.568,-1.045 2.327,-3.822 3.908,-6.172c1.582,-2.35 3.47,-5.448 4.195,-6.884c0.725,-1.436 2.1,-2.611 3.055,-2.611c0.956,0 5.477,1.671 10.047,3.713c27.822,12.43 63.828,25.863 84.478,31.517c16.987,4.651 33.79,8.918 40.615,10.313c22.667,4.632 23.79,4.976 23.488,7.208c-0.263,1.956 -1.141,6.607 -3.572,18.934c-1.6,8.115 -1.964,10.787 -4.987,36.555c-2.762,23.549 -4.02,39.706 -4.014,51.571c0.002,5.648 -0.438,11.095 -0.979,12.105c-0.962,1.799 -3.104,1.837 -102.441,1.837c-83.412,-0 -101.544,-0.224 -101.941,-1.26Zm246.821,-1.351c-0.238,-0.392 -0.073,-4.13 0.367,-8.308c0.441,-4.178 0.824,-10.564 0.852,-14.193c0.029,-3.628 0.47,-10.037 0.982,-14.242c0.512,-4.204 1.606,-13.199 2.43,-19.988c1.901,-15.652 4.195,-29.261 7.524,-44.625c2.852,-13.165 2.319,-12.378 8.176,-12.089c2.833,0.139 8.355,0.664 12.272,1.167c24.244,3.11 73.994,3.775 104.339,1.394c10.126,-0.795 18.677,-1.609 19,-1.809c0.324,-0.2 4.792,-0.486 9.929,-0.635c10.708,-0.312 10.427,-0.507 11.908,8.241c0.524,3.097 1.63,9.262 2.457,13.701c0.827,4.438 1.899,11.061 2.382,14.716c4.122,31.216 6.647,57.548 6.647,69.327l0,8.055l-94.416,0c-51.929,0 -94.611,-0.32 -94.849,-0.712Zm232.606,-4.273c-0.329,-2.741 -0.602,-9.389 -0.607,-14.772c-0.003,-5.383 -0.431,-13.715 -0.948,-18.515c-0.517,-4.799 -1.38,-13.213 -1.918,-18.696c-0.912,-9.29 -1.829,-16.846 -3.746,-30.858c-0.429,-3.133 -1.487,-9.328 -2.353,-13.767c-3.398,-17.433 -3.495,-18.428 -1.915,-19.6c0.805,-0.597 3.473,-1.374 5.93,-1.726c2.457,-0.352 5.963,-1.009 7.79,-1.459c1.828,-0.45 5.887,-1.329 9.02,-1.953c3.134,-0.625 9.115,-1.97 13.293,-2.989c4.178,-1.02 9.091,-2.207 10.919,-2.64c3.099,-0.733 12.544,-3.32 21.363,-5.851c13.021,-3.737 36.888,-12.095 50.322,-17.623c9.938,-4.089 12.595,-5.23 22.994,-9.876c2.464,-1.101 5.348,-2.378 6.409,-2.839c1.061,-0.46 5.129,-2.712 9.04,-5.003c3.911,-2.29 7.622,-3.968 8.248,-3.728c0.955,0.366 9.17,12.405 14.496,21.245c7.763,12.883 18.454,34.536 24.572,49.769c3.922,9.764 11.52,32.771 13.326,40.353c0.56,2.35 1.944,8.118 3.076,12.818c2.307,9.58 2.927,13.451 5.619,35.13c1.038,8.355 1.686,15.725 1.44,16.378c-0.354,0.94 -22.85,1.187 -108.109,1.187l-107.662,0l-0.599,-4.985Zm-161.55,-148.84c-10.966,-0.356 -25.6,-1.224 -32.519,-1.929c-13.616,-1.387 -13.497,-1.316 -11.619,-7.012c0.529,-1.604 3.113,-9.539 5.742,-17.633c2.629,-8.094 5.614,-16.528 6.634,-18.742c1.02,-2.213 1.854,-4.285 1.854,-4.603c0,-0.319 0.684,-2.139 1.521,-4.046c0.837,-1.907 1.861,-4.321 2.276,-5.366c0.415,-1.044 1.691,-4.248 2.835,-7.121c4.363,-10.951 18.085,-37.092 26.166,-49.847c8.413,-13.279 18.465,-26.902 20.843,-28.246c0.866,-0.49 2.875,1.438 6.43,6.171c6.042,8.045 21.784,32.491 24.912,38.685c1.188,2.353 4.707,9.274 7.82,15.379c3.113,6.105 6.622,13.369 7.798,16.141c1.177,2.772 2.684,6.322 3.351,7.889c0.667,1.567 2.162,5.198 3.323,8.07c1.161,2.873 2.666,6.504 3.345,8.071c2.326,5.372 6.165,16.181 6.165,17.361c-0,0.649 0.384,1.921 0.853,2.828c1.038,2.004 5.536,16.112 5.962,18.696c0.277,1.683 -0.626,1.969 -9.664,3.062c-8.307,1.005 -60.066,3.451 -63.139,2.984c-0.523,-0.08 -9.922,-0.436 -20.889,-0.792Zm137.772,-9.323c-0.288,-0.466 -3.314,-9.345 -6.725,-19.73c-3.41,-10.386 -6.626,-19.626 -7.146,-20.533c-0.519,-0.906 -0.945,-2.07 -0.945,-2.585c0,-0.515 -1.021,-3.191 -2.27,-5.947c-1.249,-2.756 -4.43,-10.351 -7.07,-16.879c-9.948,-24.596 -30.83,-62.682 -47.111,-85.927c-6.231,-8.895 -6.245,-9.319 -0.284,-8.584c22.52,2.774 33.352,4.516 38.696,6.223c1.305,0.417 5.578,1.451 9.494,2.297c8.936,1.932 13.113,3.08 20.889,5.741c3.394,1.162 9.803,3.306 14.242,4.765c4.438,1.458 10.847,3.909 14.242,5.446c3.394,1.536 7.667,3.445 9.494,4.242c9.742,4.246 15.784,7.262 25.982,12.969c6.196,3.467 11.431,6.304 11.634,6.304c0.659,0 27.303,18.309 31.698,21.783c10.629,8.4 23.074,19.485 33.861,30.158c6.441,6.374 11.711,11.785 11.711,12.025c-0,0.649 -7.517,4.728 -12.074,6.551c-3.812,1.525 -6.42,2.659 -16.766,7.289c-14.402,6.444 -44.638,17.067 -60.885,21.391c-4.7,1.251 -11.109,2.982 -14.242,3.846c-7.164,1.977 -14.519,3.734 -21.838,5.217c-3.133,0.634 -8.26,1.714 -11.393,2.399c-9.381,2.051 -12.642,2.432 -13.194,1.539l0,0Zm-237.941,-2.2c-4.438,-0.988 -10.206,-2.215 -12.817,-2.725c-7.616,-1.488 -11.749,-2.469 -21.838,-5.184c-5.222,-1.405 -10.777,-2.879 -12.343,-3.276c-4.942,-1.253 -16.853,-4.95 -23.262,-7.221c-3.395,-1.203 -8.949,-3.125 -12.343,-4.272c-3.395,-1.147 -7.454,-2.63 -9.02,-3.295c-1.567,-0.666 -8.403,-3.45 -15.192,-6.186c-17.323,-6.983 -24.405,-10.328 -24.046,-11.356c0.17,-0.487 4.045,-4.928 8.612,-9.869c8.725,-9.442 29.687,-28.031 41.025,-36.381c3.68,-2.711 9.378,-6.907 12.661,-9.324c5.327,-3.922 16.224,-10.666 30.11,-18.633c4.52,-2.593 12.881,-6.734 27.535,-13.638c9.473,-4.464 34.531,-13.663 42.726,-15.687c2.611,-0.644 8.379,-2.126 12.817,-3.293c9.613,-2.527 15.461,-3.737 27.535,-5.697c4.961,-0.805 10.402,-1.689 12.091,-1.964c2.648,-0.431 2.988,-0.265 2.465,1.202c-0.335,0.936 -1.969,3.411 -3.632,5.499c-12.987,16.308 -38.803,62.869 -49.486,89.25c-6.859,16.938 -7.291,17.998 -8.706,21.363c-1.148,2.729 -4.097,11.729 -9.18,28.01c-4.139,13.26 -4.554,14.203 -6.319,14.358c-0.727,0.064 -4.954,-0.693 -9.393,-1.681Z" style="fill:#00d9da;fill-rule:nonzero;"/></g></svg>