<?xml version="1.0" encoding="UTF-8" standalone="no"?><!DOCTYPE svg PUBLIC "-//W3C//DTD SVG 1.1//EN" "http://www.w3.org/Graphics/SVG/1.1/DTD/svg11.dtd"><svg width="100%" height="100%" viewBox="0 0 6604 1318" version="1.1" xmlns="http://www.w3.org/2000/svg" xmlns:xlink="http://www.w3.org/1999/xlink" xml:space="preserve" xmlns:serif="http://www.serif.com/" style="fill-rule:evenodd;clip-rule:evenodd;stroke-linejoin:round;stroke-miterlimit:2;"><g><g id="g34"><path id="path24" d="M537.565,1150.7c-0.407,-0.659 4.065,-8.288 9.939,-16.955c15.11,-22.296 25.887,-39.549 32.992,-52.819c3.374,-6.301 8.735,-16.307 11.914,-22.237c6.586,-12.286 12.054,-23.269 12.054,-24.212c0,-0.352 1.461,-3.842 3.246,-7.756c1.784,-3.913 5.496,-12.573 8.247,-19.244c2.751,-6.671 6.071,-14.555 7.377,-17.52c3.012,-6.839 3.477,-8.188 13.586,-39.42c6.452,-19.93 8.918,-25.943 10.64,-25.943c1.233,0 7.96,1.246 14.95,2.769c6.989,1.523 15.74,3.341 19.446,4.04c13.496,2.545 37.627,8.62 63.762,16.051c25.81,7.339 65.131,21.739 88.79,32.515c3.109,1.417 5.999,2.576 6.422,2.576c1.466,-0 15.552,9.821 15.552,10.843c-0,2.163 -32.428,33.398 -48.517,46.733c-17.37,14.397 -51.123,38.23 -65.363,46.153c-4.447,2.475 -10.209,5.705 -12.803,7.178c-7.062,4.01 -30.527,15.775 -31.462,15.775c-0.448,0 -4.924,1.873 -9.946,4.161c-5.021,2.289 -10.95,4.988 -13.173,5.998c-8.672,3.941 -54.741,18.062 -70.08,21.481c-8.895,1.983 -17.93,4.166 -20.079,4.85c-2.149,0.685 -6.055,1.245 -8.679,1.245c-2.625,0 -8.144,0.607 -12.265,1.348c-14.211,2.554 -25.804,3.598 -26.55,2.39Zm-116.386,-2.33c-2.594,-0.56 -9.872,-1.776 -16.172,-2.704c-6.301,-0.928 -16.004,-2.895 -21.563,-4.372c-5.559,-1.477 -12.231,-3.149 -14.825,-3.715c-10.329,-2.254 -21.523,-5.587 -34.366,-10.232c-7.412,-2.681 -16.854,-5.975 -20.982,-7.32c-4.127,-1.345 -12.011,-4.567 -17.519,-7.161c-5.509,-2.594 -15.474,-7.278 -22.145,-10.411c-31.258,-14.677 -71.43,-41.198 -101.076,-66.728c-16.41,-14.132 -46.63,-43.622 -47.609,-46.459c-0.411,-1.193 12.023,-7.313 24.698,-12.157c1.483,-0.566 4.91,-2.001 7.616,-3.189c2.707,-1.187 5.291,-2.159 5.743,-2.159c0.451,0 3.392,-1.184 6.534,-2.632c15.19,-6.999 71.055,-25.69 76.74,-25.675c1.263,0.003 3.688,-0.553 5.391,-1.236c3.71,-1.489 27.077,-7.374 37.462,-9.435c4.076,-0.81 13.78,-2.664 21.563,-4.12l14.15,-2.649l2.359,2.808c1.297,1.544 2.358,3.55 2.358,4.458c0,2.036 16.457,51.941 19.578,59.37c1.245,2.965 3.354,7.817 4.685,10.782c1.332,2.965 5.565,12.932 9.407,22.148c3.843,9.217 8.978,20.436 11.411,24.932c2.434,4.496 7.758,14.543 11.832,22.326c12.301,23.501 25.308,44.648 40.825,66.373l7.459,10.445l-4.418,-0.136c-2.431,-0.074 -6.542,-0.593 -9.136,-1.152l-0,-0Zm53.655,-48.24c-12.257,-17.607 -21.093,-31.328 -26.376,-40.957c-15.103,-27.528 -23.166,-43.392 -27.985,-55.065c-1.989,-4.818 -4.704,-11.186 -6.032,-14.151c-6.104,-13.616 -9.762,-23.298 -17.501,-46.319c-6.133,-18.243 -7.927,-25.152 -6.817,-26.262c3.164,-3.164 86.608,-6.241 127.883,-4.716c23.803,0.879 62.281,3.117 64.558,3.754c1.709,0.478 -12.893,46.209 -19.188,60.097c-1.688,3.723 -5.314,12.213 -8.059,18.867c-6.753,16.371 -8.735,20.941 -10.804,24.902c-0.968,1.853 -5.37,10.343 -9.783,18.868c-11.781,22.758 -14.279,26.994 -28.856,48.933c-16.702,25.135 -17.663,26.443 -19.47,26.495c-0.817,0.025 -6.023,-6.477 -11.57,-14.446Zm410.652,-161.393c-6.655,-4.072 -12.738,-7.404 -13.518,-7.404c-1.649,-0 -20.892,-7.986 -39.071,-16.213c-18.461,-8.356 -79.137,-28.188 -107.141,-35.019c-9.45,-2.305 -17.004,-4.004 -24.258,-5.455c-8.257,-1.652 -13.016,-2.641 -29.475,-6.127l-11.28,-2.39l0.85,-6.818c0.468,-3.75 1.391,-9.547 2.053,-12.882c3.889,-19.616 5.747,-30.028 6.854,-38.41c0.685,-5.188 1.898,-13.982 2.696,-19.541c2.96,-20.619 5.613,-49.878 6.642,-73.25c0.802,-18.202 1.517,-24.35 2.937,-25.249c2.638,-1.671 304.044,-1.599 305.078,0.072c0.895,1.448 -2.686,39.054 -4.624,48.563c-0.68,3.335 -1.927,10.006 -2.771,14.824c-4.001,22.827 -15.317,63.699 -22.202,80.188c-0.928,2.223 -3.383,8.288 -5.454,13.476c-5.815,14.566 -18.462,40.641 -25.383,52.335c-3.437,5.805 -6.249,10.87 -6.249,11.253c0,0.605 -23.055,35.481 -23.44,35.459c-0.079,-0.004 -5.589,-3.34 -12.244,-7.412l0,-0Zm-803.047,-7.741c-18.707,-24.806 -47.605,-82.914 -58.803,-118.241c-9.995,-31.533 -15.711,-55.909 -19.44,-82.901c-3.766,-27.26 -4.688,-38.974 -3.207,-40.768c1.821,-2.207 284.093,-2.49 288.205,-0.289c2.333,1.249 2.607,2.941 2.607,16.124c0,14.229 0.501,20.641 4.794,61.32c2.767,26.217 5.931,47.643 10.747,72.775c4.432,23.132 4.464,23.429 2.668,24.92c-0.897,0.744 -4.602,1.939 -8.235,2.655c-3.633,0.716 -10.85,2.253 -16.039,3.417c-5.188,1.163 -12.162,2.619 -15.498,3.234c-10.921,2.015 -58.934,14.76 -66.71,17.708c-1.483,0.562 -9.67,3.252 -18.194,5.978c-12.822,4.1 -26.148,9.123 -51.886,19.557c-1.482,0.6 -6.199,2.671 -10.481,4.601c-4.283,1.93 -8.385,3.509 -9.116,3.509c-0.731,-0 -2.382,0.565 -3.669,1.255c-2.872,1.541 -22.772,9.526 -23.741,9.526c-0.384,-0 -2.185,-1.971 -4.002,-4.38l0,-0Zm287.97,-75.356c-0.784,-0.989 -1.783,-4.225 -2.219,-7.19c-0.437,-2.965 -1.786,-10.546 -2.998,-16.846c-1.211,-6.3 -2.666,-15.094 -3.233,-19.541c-0.566,-4.448 -2.293,-17.79 -3.837,-29.65c-4.237,-32.543 -8.914,-90.706 -7.423,-92.316c0.344,-0.371 60.765,-0.674 134.27,-0.674l133.646,0l-0.005,18.868c-0.01,20.08 -2.22,50.549 -5.342,73.576c-1.046,7.713 -2.274,17.056 -2.73,20.762c-1.412,11.486 -7.612,44.226 -9.316,49.19c-1.894,5.522 0.599,5.368 -32.469,1.993c-43.897,-4.48 -162.237,-2.716 -192.796,2.874c-2.618,0.479 -4.639,0.098 -5.546,-1.046l-0.002,0Zm-370.106,-229.324c-1.998,-5.209 6.271,-59.544 13.368,-87.834c6.573,-26.201 11.553,-41.753 22.007,-68.732c3.871,-9.99 17.215,-37.572 24.777,-51.212c3.698,-6.671 7.383,-13.342 8.189,-14.824c0.807,-1.483 3.303,-5.425 5.549,-8.76c2.245,-3.336 4.924,-7.733 5.953,-9.771c1.03,-2.038 2.981,-3.706 4.337,-3.706c1.357,-0 7.774,2.371 14.26,5.269c39.491,17.644 90.599,36.711 119.91,44.737c24.111,6.602 47.961,12.657 57.65,14.637c32.173,6.575 33.766,7.064 33.339,10.232c-0.374,2.776 -1.62,9.378 -5.07,26.875c-2.272,11.518 -2.789,15.312 -7.079,51.886c-3.921,33.427 -5.706,56.36 -5.699,73.201c0.004,8.017 -0.621,15.749 -1.388,17.183c-1.366,2.552 -4.406,2.606 -145.406,2.606c-118.397,0 -144.133,-0.317 -144.697,-1.787Zm350.341,-1.919c-0.338,-0.556 -0.104,-5.862 0.521,-11.792c0.625,-5.93 1.169,-14.995 1.209,-20.145c0.041,-5.15 0.668,-14.247 1.394,-20.216c0.727,-5.968 2.279,-18.735 3.449,-28.371c2.698,-22.217 5.955,-41.534 10.679,-63.341c4.049,-18.687 3.293,-17.569 11.606,-17.16c4.021,0.197 11.859,0.943 17.419,1.656c34.413,4.415 105.028,5.359 148.099,1.979c14.374,-1.128 26.511,-2.283 26.97,-2.567c0.459,-0.284 6.801,-0.69 14.093,-0.902c15.199,-0.442 14.8,-0.719 16.902,11.698c0.745,4.395 2.314,13.146 3.488,19.446c1.174,6.301 2.695,15.701 3.381,20.89c5.851,44.307 9.435,81.683 9.435,98.403l-0,11.433l-134.015,0c-73.709,0 -134.292,-0.455 -134.63,-1.011Zm330.164,-6.064c-0.468,-3.892 -0.855,-13.327 -0.862,-20.968c-0.005,-7.641 -0.612,-19.467 -1.345,-26.28c-0.734,-6.813 -1.959,-18.755 -2.723,-26.538c-1.294,-13.186 -2.596,-23.911 -5.317,-43.8c-0.609,-4.447 -2.112,-13.241 -3.34,-19.541c-4.823,-24.744 -4.962,-26.157 -2.719,-27.821c1.143,-0.847 4.931,-1.95 8.418,-2.45c3.487,-0.5 8.463,-1.431 11.058,-2.07c2.594,-0.639 8.355,-1.887 12.803,-2.773c4.447,-0.886 12.937,-2.795 18.867,-4.242c5.93,-1.447 12.904,-3.134 15.499,-3.747c4.398,-1.041 17.804,-4.713 30.323,-8.305c18.481,-5.305 52.358,-17.169 71.427,-25.015c14.106,-5.804 17.878,-7.424 32.639,-14.018c3.497,-1.562 7.591,-3.375 9.097,-4.029c1.506,-0.654 7.28,-3.85 12.831,-7.101c5.551,-3.252 10.819,-5.633 11.707,-5.293c1.356,0.521 13.016,17.609 20.576,30.156c11.019,18.287 26.193,49.02 34.878,70.643c5.567,13.859 16.351,46.515 18.915,57.277c0.795,3.335 2.76,11.522 4.366,18.193c3.275,13.6 4.154,19.093 7.976,49.865c1.472,11.859 2.392,22.321 2.044,23.247c-0.503,1.335 -32.434,1.685 -153.451,1.685l-152.817,0l-0.85,-7.075Zm-229.306,-211.266c-15.566,-0.505 -36.337,-1.738 -46.158,-2.738c-19.326,-1.969 -19.159,-1.868 -16.492,-9.953c0.75,-2.277 4.418,-13.539 8.149,-25.028c3.732,-11.489 7.969,-23.46 9.417,-26.602c1.447,-3.143 2.632,-6.083 2.632,-6.535c-0,-0.452 0.971,-3.036 2.159,-5.743c1.187,-2.706 2.641,-6.133 3.23,-7.615c0.589,-1.483 2.4,-6.031 4.024,-10.108c6.193,-15.544 25.671,-52.649 37.14,-70.754c11.941,-18.849 26.21,-38.184 29.586,-40.093c1.229,-0.695 4.08,2.041 9.126,8.76c8.576,11.419 30.921,46.118 35.36,54.909c1.687,3.34 6.682,13.164 11.101,21.83c4.418,8.665 9.399,18.975 11.069,22.91c1.669,3.935 3.809,8.974 4.755,11.198c0.947,2.224 3.069,7.378 4.717,11.455c1.649,4.077 3.785,9.232 4.748,11.456c3.302,7.625 8.75,22.968 8.75,24.642c0,0.921 0.545,2.727 1.212,4.014c1.472,2.845 7.858,22.87 8.462,26.538c0.393,2.388 -0.889,2.794 -13.717,4.346c-11.792,1.427 -85.258,4.898 -89.621,4.235c-0.741,-0.113 -14.083,-0.619 -29.649,-1.124Zm195.555,-13.233c-0.409,-0.661 -4.704,-13.264 -9.545,-28.006c-4.841,-14.742 -9.406,-27.856 -10.144,-29.143c-0.737,-1.287 -1.341,-2.939 -1.341,-3.67c0,-0.731 -1.45,-4.529 -3.222,-8.441c-1.773,-3.912 -6.289,-14.693 -10.036,-23.958c-14.12,-34.913 -43.76,-88.973 -66.87,-121.966c-8.844,-12.626 -8.864,-13.228 -0.402,-12.185c31.964,3.938 47.34,6.41 54.924,8.833c1.853,0.592 7.918,2.059 13.477,3.261c12.683,2.742 18.612,4.372 29.649,8.149c4.818,1.649 13.915,4.692 20.216,6.762c6.3,2.071 15.397,5.55 20.215,7.731c4.818,2.18 10.882,4.89 13.477,6.021c13.827,6.027 22.404,10.308 36.878,18.409c8.795,4.921 16.226,8.948 16.513,8.948c0.937,0 38.755,25.988 44.993,30.918c15.087,11.924 32.752,27.658 48.063,42.808c9.142,9.047 16.623,16.728 16.623,17.068c-0,0.921 -10.67,6.711 -17.139,9.299c-5.41,2.164 -9.111,3.774 -23.797,10.345c-20.442,9.147 -63.36,24.226 -86.421,30.363c-6.671,1.776 -15.768,4.232 -20.215,5.46c-10.168,2.806 -20.609,5.3 -30.997,7.404c-4.447,0.9 -11.725,2.433 -16.172,3.405c-13.315,2.912 -17.944,3.452 -18.727,2.185l0,-0Zm-337.736,-3.123c-6.3,-1.403 -14.488,-3.143 -18.194,-3.867c-10.809,-2.113 -16.676,-3.505 -30.997,-7.359c-7.412,-1.994 -15.296,-4.087 -17.519,-4.651c-7.014,-1.777 -23.921,-7.025 -33.019,-10.249c-4.818,-1.707 -12.702,-4.435 -17.52,-6.063c-4.818,-1.628 -10.579,-3.733 -12.803,-4.678c-2.223,-0.945 -11.927,-4.896 -21.563,-8.78c-24.588,-9.912 -34.64,-14.659 -34.131,-16.118c0.242,-0.691 5.742,-6.995 12.223,-14.008c12.386,-13.403 42.139,-39.788 58.232,-51.64c5.224,-3.848 13.311,-9.804 17.972,-13.235c7.56,-5.567 23.028,-15.139 42.738,-26.447c6.416,-3.681 18.283,-9.56 39.083,-19.359c13.447,-6.336 49.014,-19.394 60.645,-22.265c3.707,-0.915 11.894,-3.019 18.194,-4.675c13.644,-3.587 21.945,-5.304 39.083,-8.086c7.042,-1.144 14.765,-2.398 17.163,-2.789c3.758,-0.611 4.241,-0.376 3.497,1.706c-0.474,1.329 -2.793,4.842 -5.154,7.807c-18.434,23.147 -55.078,89.236 -70.241,126.682c-9.735,24.041 -10.349,25.546 -12.358,30.323c-1.629,3.874 -5.815,16.647 -13.029,39.757c-5.876,18.822 -6.465,20.16 -8.97,20.38c-1.032,0.091 -7.032,-0.983 -13.332,-2.386Z" style="fill:#fff;fill-rule:nonzero;"/></g><path d="M1075.09,0l0,1317.32l16.826,-0l0,-1317.32l-16.826,0Z" style="fill:#fff;"/><g><path id="Fill-1" d="M2462.85,243.87l106.234,17.576l-0,-35.197l-106.234,-17.735l-0,35.356Z" style="fill:#00d9da;"/><path id="Fill-2" d="M2569.08,173.316l-106.234,17.574l-0,35.358l106.234,-17.734l-0,-35.198Z" style="fill:#ff2751;"/><path id="Fill-3" d="M2462.85,296.644l106.234,17.735l-0,-35.357l-106.234,-17.576l-0,35.198Z" style="fill:#00d9da;"/><path id="Fill-4" d="M2462.85,243.822l-0,35.358l106.234,-17.735l-0,-35.197l-106.234,17.574Z" style="fill:#ff2751;"/><rect x="3645.57" y="1069.81" width="2957.66" height="33.652" style="fill:#00d9da;"/><rect x="1174.87" y="1069.81" width="2272.07" height="33.652" style="fill:#ff2751;"/><g id="Group-20"><path id="Fill-6" d="M2683.92,199.071c0,-4.311 -2.548,-6.47 -7.642,-6.47l-6.45,0l-0,12.802l6.45,-0c5.094,-0 7.642,-2.109 7.642,-6.332Zm-14.092,15.865l-0,17.252l-12.685,0l0,-49.188l20.546,-0c6.231,-0 10.98,1.45 14.243,4.348c3.264,2.901 4.896,6.808 4.896,11.723c0,3.062 -0.73,5.788 -2.189,8.177c-1.459,2.388 -3.622,4.268 -6.492,5.636c-2.868,1.365 -6.355,2.052 -10.458,2.052l-7.861,0Z" style="fill:#fff;"/><rect id="Fill-8" x="2703.05" y="183.002" width="12.684" height="49.188" style="fill:#fff;"/><path id="Fill-10" d="M2765.03,187.453c4.377,3.296 7.205,7.747 8.492,13.361l-13.425,-0c-0.989,-2.272 -2.509,-4.062 -4.559,-5.36c-2.055,-1.298 -4.49,-1.948 -7.31,-1.948c-3.707,0 -6.701,1.276 -8.973,3.827c-2.274,2.552 -3.413,5.961 -3.413,10.227c-0,4.268 1.139,7.664 3.413,10.195c2.272,2.528 5.266,3.789 8.973,3.789c2.82,0 5.255,-0.648 7.31,-1.948c2.05,-1.296 3.57,-3.061 4.559,-5.285l13.425,-0c-1.287,5.563 -4.115,10.005 -8.492,13.321c-4.377,3.318 -9.903,4.977 -16.578,4.977c-5.094,-0 -9.566,-1.057 -13.425,-3.168c-3.857,-2.109 -6.836,-5.068 -8.938,-8.871c-2.103,-3.802 -3.151,-8.14 -3.151,-13.01c0,-4.87 1.048,-9.205 3.151,-13.008c2.102,-3.803 5.081,-6.762 8.938,-8.871c3.859,-2.111 8.331,-3.165 13.425,-3.165c6.675,-0 12.201,1.643 16.578,4.937" style="fill:#fff;"/><path id="Fill-11" d="M2795.66,197.091c-2.448,2.526 -3.672,5.97 -3.672,10.331c-0,4.311 1.224,7.745 3.672,10.295c2.446,2.552 5.748,3.826 9.901,3.826c4.103,0 7.392,-1.274 9.866,-3.826c2.472,-2.55 3.709,-5.984 3.709,-10.295c0,-4.313 -1.226,-7.746 -3.674,-10.297c-2.448,-2.55 -5.746,-3.826 -9.901,-3.826c-4.153,-0 -7.455,1.263 -9.901,3.792m23.363,-11.621c4.031,2.156 7.208,5.148 9.532,8.975c2.324,3.828 3.485,8.153 3.485,12.977c0,4.825 -1.174,9.16 -3.522,13.008c-2.35,3.853 -5.54,6.855 -9.569,9.012c-4.031,2.155 -8.492,3.233 -13.388,3.233c-4.894,0 -9.358,-1.078 -13.389,-3.233c-4.031,-2.157 -7.22,-5.159 -9.568,-9.012c-2.348,-3.848 -3.522,-8.183 -3.522,-13.008c-0,-4.824 1.174,-9.149 3.522,-12.977c2.348,-3.827 5.537,-6.819 9.568,-8.975c4.031,-2.157 8.495,-3.233 13.389,-3.233c4.944,-0 9.434,1.076 13.462,3.233" style="fill:#fff;"/><path id="Fill-12" d="M2869.39,217.857c2.746,-2.459 4.118,-5.913 4.118,-10.368c-0,-4.451 -1.372,-7.905 -4.118,-10.364c-2.744,-2.459 -6.588,-3.688 -11.534,-3.688l-6.007,0l-0,28.106l6.007,-0c4.946,-0 8.79,-1.227 11.534,-3.686m13.647,2.47c-2.198,3.736 -5.363,6.642 -9.492,8.73c-4.129,2.087 -8.988,3.133 -14.576,3.133l-19.804,-0l-0,-49.189l19.804,0c5.638,0 10.508,1.02 14.613,3.061c4.102,2.04 7.257,4.918 9.455,8.628c2.201,3.711 3.303,7.979 3.303,12.799c-0,4.827 -1.102,9.105 -3.303,12.838" style="fill:#fff;"/><path id="Fill-13" d="M2906.22,192.462l0,10.297l17.728,-0l0,8.975l-17.728,-0l0,10.925l19.955,-0l-0,9.529l-32.639,0l0,-49.188l32.639,-0l-0,9.462l-19.955,-0Z" style="fill:#fff;"/><path id="Fill-14" d="M2640.92,299.975c-0.904,1.62 -2.281,2.939 -4.127,3.957c-1.848,1.017 -4.126,1.524 -6.839,1.524c-2.64,-0 -4.986,-0.478 -7.038,-1.442c-2.055,-0.958 -3.694,-2.276 -4.918,-3.954c-1.224,-1.677 -1.933,-3.59 -2.122,-5.74l5.485,-0c0.113,1.133 0.498,2.235 1.159,3.309c0.659,1.074 1.6,1.959 2.826,2.657c1.225,0.698 2.703,1.045 4.438,1.045c2.261,0 3.994,-0.602 5.201,-1.808c1.204,-1.207 1.808,-2.753 1.808,-4.636c0,-1.62 -0.424,-2.939 -1.271,-3.957c-0.848,-1.017 -1.894,-1.817 -3.138,-2.404c-1.243,-0.581 -2.939,-1.214 -5.089,-1.892c-2.525,-0.83 -4.549,-1.611 -6.077,-2.346c-1.524,-0.735 -2.825,-1.839 -3.899,-3.307c-1.074,-1.469 -1.611,-3.411 -1.611,-5.822c0,-2.072 0.5,-3.901 1.498,-5.486c0.998,-1.58 2.431,-2.806 4.297,-3.672c1.865,-0.865 4.061,-1.302 6.585,-1.302c3.918,-0 7.027,0.954 9.327,2.857c2.298,1.902 3.638,4.324 4.012,7.264l-5.538,-0c-0.302,-1.583 -1.111,-2.977 -2.431,-4.183c-1.319,-1.207 -3.109,-1.809 -5.37,-1.809c-2.072,-0 -3.731,0.537 -4.974,1.611c-1.244,1.074 -1.866,2.589 -1.866,4.55c0,1.546 0.405,2.798 1.216,3.759c0.81,0.961 1.817,1.714 3.024,2.259c1.204,0.548 2.863,1.161 4.972,1.84c2.563,0.828 4.627,1.619 6.192,2.374c1.563,0.754 2.892,1.894 3.985,3.42c1.092,1.526 1.64,3.552 1.64,6.077c-0,1.885 -0.453,3.637 -1.357,5.257" style="fill:#fff;"/><path id="Fill-15" d="M2674.16,276.798c2.598,2.111 4.202,4.937 4.805,8.479l-5.427,-0c-0.378,-2.222 -1.407,-3.966 -3.081,-5.229c-1.678,-1.263 -3.761,-1.894 -6.246,-1.894c-1.809,0 -3.459,0.414 -4.949,1.244c-1.487,0.828 -2.682,2.1 -3.587,3.816c-0.904,1.715 -1.357,3.835 -1.357,6.359c0,2.524 0.453,4.646 1.357,6.36c0.905,1.715 2.1,2.987 3.587,3.815c1.49,0.831 3.14,1.244 4.949,1.244c2.485,-0 4.568,-0.642 6.246,-1.922c1.674,-1.281 2.703,-3.033 3.081,-5.257l5.427,-0c-0.603,3.581 -2.207,6.416 -4.805,8.507c-2.6,2.092 -5.879,3.138 -9.836,3.138c-2.979,-0 -5.616,-0.64 -7.914,-1.922c-2.3,-1.281 -4.098,-3.118 -5.398,-5.512c-1.301,-2.394 -1.951,-5.209 -1.951,-8.451c0,-3.239 0.65,-6.066 1.951,-8.479c1.3,-2.411 3.098,-4.257 5.398,-5.54c2.298,-1.28 4.935,-1.922 7.914,-1.922c3.957,0 7.236,1.055 9.836,3.166" style="fill:#fff;"/><path id="Fill-16" d="M2712.2,276.995c2.222,2.318 3.333,5.662 3.333,10.034l-0,18.032l-5.142,0l-0,-17.58c-0,-3.089 -0.792,-5.461 -2.377,-7.122c-1.58,-1.659 -3.731,-2.488 -6.444,-2.488c-2.824,0 -5.087,0.914 -6.783,2.742c-1.694,1.828 -2.544,4.494 -2.544,7.999l-0,16.449l-5.142,0l0,-41.83l5.142,-0l-0,18.147c0.793,-2.526 2.196,-4.468 4.213,-5.824c2.016,-1.357 4.342,-2.035 6.982,-2.035c3.618,-0 6.537,1.161 8.762,3.476" style="fill:#fff;"/><path id="Fill-17" d="M2733.82,279.399c-1.563,0.828 -2.826,2.1 -3.785,3.815c-0.963,1.716 -1.442,3.836 -1.442,6.36c0,2.485 0.479,4.587 1.442,6.303c0.959,1.713 2.222,2.987 3.785,3.815c1.565,0.829 3.27,1.242 5.118,1.242c1.844,-0 3.55,-0.413 5.114,-1.242c1.565,-0.828 2.828,-2.102 3.787,-3.815c0.963,-1.716 1.441,-3.818 1.441,-6.303c0,-2.524 -0.478,-4.644 -1.441,-6.36c-0.959,-1.715 -2.222,-2.987 -3.787,-3.815c-1.564,-0.831 -3.27,-1.244 -5.114,-1.244c-1.848,0 -3.553,0.413 -5.118,1.244m13.115,-3.846c2.354,1.282 4.202,3.13 5.539,5.539c1.337,2.416 2.009,5.24 2.009,8.482c0,3.241 -0.672,6.057 -2.009,8.449c-1.337,2.396 -3.185,4.233 -5.539,5.513c-2.355,1.281 -5.021,1.92 -7.997,1.92c-2.979,0 -5.644,-0.639 -7.999,-1.92c-2.357,-1.28 -4.213,-3.117 -5.57,-5.513c-1.357,-2.392 -2.033,-5.208 -2.033,-8.449c0,-3.242 0.676,-6.066 2.033,-8.482c1.357,-2.409 3.213,-4.257 5.57,-5.539c2.355,-1.279 5.02,-1.92 7.999,-1.92c2.976,-0 5.642,0.641 7.997,1.92" style="fill:#fff;"/><path id="Fill-18" d="M2771.58,279.399c-1.563,0.828 -2.826,2.1 -3.785,3.815c-0.963,1.716 -1.441,3.836 -1.441,6.36c-0,2.485 0.478,4.587 1.441,6.303c0.959,1.713 2.222,2.987 3.785,3.815c1.566,0.829 3.27,1.242 5.118,1.242c1.844,-0 3.551,-0.413 5.114,-1.242c1.565,-0.828 2.828,-2.102 3.787,-3.815c0.963,-1.716 1.442,-3.818 1.442,-6.303c-0,-2.524 -0.479,-4.644 -1.442,-6.36c-0.959,-1.715 -2.222,-2.987 -3.787,-3.815c-1.563,-0.831 -3.27,-1.244 -5.114,-1.244c-1.848,0 -3.552,0.413 -5.118,1.244m13.115,-3.846c2.354,1.282 4.202,3.13 5.54,5.539c1.337,2.416 2.009,5.24 2.009,8.482c-0,3.241 -0.672,6.057 -2.009,8.449c-1.338,2.396 -3.186,4.233 -5.54,5.513c-2.355,1.281 -5.02,1.92 -7.997,1.92c-2.978,0 -5.644,-0.639 -7.998,-1.92c-2.357,-1.28 -4.214,-3.117 -5.571,-5.513c-1.356,-2.392 -2.033,-5.208 -2.033,-8.449c0,-3.242 0.677,-6.066 2.033,-8.482c1.357,-2.409 3.214,-4.257 5.571,-5.539c2.354,-1.279 5.02,-1.92 7.998,-1.92c2.977,-0 5.642,0.641 7.997,1.92" style="fill:#fff;"/><rect id="Fill-19" x="2800.38" y="263.231" width="5.142" height="41.831" style="fill:#fff;"/><path id="Fill-5" d="M2630,192.462l0,10.297l17.728,-0l0,8.975l-17.728,-0l0,10.925l19.955,-0l-0,9.529l-32.639,0l0,-49.188l32.639,-0l-0,9.462l-19.955,-0Z" style="fill:#fff;"/></g><g><path d="M1745.78,498.776l-78.456,74.794c-53.373,-56.411 -113.417,-84.616 -180.132,-84.616c-56.307,-0 -103.741,19.249 -142.303,57.748c-38.561,38.499 -57.842,85.956 -57.842,142.372c-0,39.3 8.54,74.19 25.619,104.67c17.079,30.48 41.231,54.409 72.453,71.787c31.223,17.377 65.915,26.066 104.076,26.066c32.556,0 62.31,-6.082 89.262,-18.248c26.951,-12.165 56.573,-34.288 88.867,-66.368l76.052,79.358c-43.536,42.489 -84.668,71.949 -123.397,88.382c-38.728,16.432 -82.932,24.649 -132.612,24.649c-91.613,-0 -166.599,-29.047 -224.959,-87.14c-58.36,-58.093 -87.54,-132.545 -87.54,-223.357c-0,-58.76 13.287,-110.977 39.863,-156.65c26.576,-45.673 64.637,-82.399 114.183,-110.176c49.546,-27.778 102.898,-41.667 160.056,-41.667c48.611,-0 95.419,10.266 140.424,30.799c45.006,20.533 83.801,49.732 116.386,87.597Z" style="fill:#fff;fill-rule:nonzero;"/><path d="M1810.52,395.204l118.852,-0c65.096,-0 111.45,5.809 139.063,17.428c27.613,11.618 49.824,30.916 66.632,57.892c16.808,26.977 25.212,58.894 25.212,95.753c0,38.729 -9.28,71.114 -27.841,97.156c-18.561,26.041 -46.536,45.739 -83.925,59.094l139.611,262.019l-122.634,-0l-132.524,-249.599l-10.267,-0l0,249.599l-112.179,-0l-0,-589.342Zm112.179,230.368l35.15,-0c35.678,-0 60.24,-4.69 73.687,-14.069c13.446,-9.38 20.169,-24.923 20.169,-46.628c0,-12.862 -3.328,-24.05 -9.984,-33.563c-6.657,-9.513 -15.576,-16.347 -26.759,-20.502c-11.182,-4.154 -31.685,-6.231 -61.507,-6.231l-30.756,-0l0,120.993Z" style="fill:#fff;fill-rule:nonzero;"/><path d="M2295.01,395.204l109.3,-0l136.619,411.057l137.857,-411.057l109.231,-0l98.865,589.342l-108.48,-0l-63.195,-372.195l-125.2,372.195l-98.864,-0l-124.092,-372.195l-64.704,372.195l-109.375,-0l102.038,-589.342Z" style="fill:#fff;fill-rule:nonzero;"/><path d="M3124.14,395.204l321.714,-0l0,109.775l-210.336,0l0,106.571l210.336,-0l0,107.772l-210.336,-0l0,155.048l210.336,-0l0,110.176l-321.714,-0l-0,-589.342Z" style="fill:#fff;fill-rule:nonzero;"/><path d="M3605.95,548.649l0,48.077c19.765,-19.765 41.133,-34.589 64.103,-44.471c22.97,-9.883 47.542,-14.824 73.718,-14.824c56.891,0 105.235,21.501 145.031,64.503c39.797,43.002 59.696,98.157 59.696,165.465c-0,64.904 -20.566,119.19 -61.699,162.86c-41.132,43.67 -89.877,65.505 -146.234,65.505c-25.106,-0 -48.477,-4.474 -70.112,-13.422c-21.634,-8.947 -43.135,-23.571 -64.503,-43.87l0,205.529l-108.573,-0l-0,-595.352l108.573,0Zm114.984,89.743c-34.455,0 -63.034,11.753 -85.737,35.257c-22.703,23.504 -34.054,54.22 -34.054,92.147c-0,38.729 11.351,70.045 34.054,93.95c22.703,23.905 51.282,35.858 85.737,35.858c33.387,-0 61.498,-12.153 84.335,-36.459c22.836,-24.305 34.255,-55.288 34.255,-92.948c-0,-37.393 -11.218,-68.042 -33.654,-91.947c-22.436,-23.905 -50.748,-35.858 -84.936,-35.858Z" style="fill:#fff;fill-rule:nonzero;"/><path d="M4040.69,369.162c19.177,0 35.623,6.944 49.339,20.833c13.715,13.889 20.573,30.716 20.573,50.481c0,19.498 -6.791,36.124 -20.373,49.88c-13.582,13.755 -29.828,20.633 -48.737,20.633c-19.444,-0 -36.024,-7.011 -49.739,-21.034c-13.716,-14.022 -20.574,-31.049 -20.574,-51.081c0,-19.231 6.791,-35.657 20.373,-49.279c13.582,-13.622 29.962,-20.433 49.138,-20.433Zm-54.687,179.487l109.375,0l-0,435.897l-109.375,-0l-0,-435.897Z" style="fill:#fff;fill-rule:nonzero;"/><path d="M4580.39,636.79l-91.052,50.08c-17.115,-17.895 -34.029,-30.315 -50.743,-37.26c-16.715,-6.944 -36.302,-10.416 -58.763,-10.416c-40.915,-0 -74.008,12.201 -99.277,36.602c-25.27,24.402 -37.905,55.668 -37.905,93.8c0,37.072 12.168,67.341 36.502,90.808c24.335,23.466 56.29,35.2 95.866,35.2c48.941,-0 87.048,-16.694 114.32,-50.08l86.244,59.05c-46.741,60.793 -112.713,91.19 -197.916,91.19c-76.656,-0 -136.685,-22.703 -180.088,-68.109c-43.403,-45.406 -65.104,-98.558 -65.104,-159.455c0,-42.201 10.55,-81.063 31.651,-116.586c21.1,-35.524 50.547,-63.435 88.341,-83.734c37.794,-20.299 80.061,-30.449 126.803,-30.449c43.269,0 82.131,8.614 116.586,25.841c34.455,17.228 62.633,41.734 84.535,73.518Z" style="fill:#fff;fill-rule:nonzero;"/><path d="M4842.65,537.431c41.133,0 79.795,10.283 115.986,30.849c36.191,20.567 64.436,48.478 84.735,83.734c20.299,35.257 30.449,73.317 30.449,114.183c0,41.132 -10.216,79.594 -30.649,115.384c-20.433,35.791 -48.277,63.769 -83.534,83.934c-35.256,20.166 -74.118,30.249 -116.586,30.249c-62.5,-0 -115.852,-22.236 -160.056,-66.707c-44.204,-44.471 -66.306,-98.491 -66.306,-162.059c0,-68.109 24.973,-124.866 74.92,-170.272c43.803,-39.53 94.15,-59.295 151.041,-59.295Zm1.803,102.965c-33.979,-0 -62.272,11.819 -84.879,35.456c-22.607,23.638 -33.911,53.887 -33.911,90.745c0,37.928 11.17,68.644 33.51,92.148c22.34,23.504 50.633,35.256 84.88,35.256c34.246,0 62.74,-11.886 85.48,-35.657c22.741,-23.771 34.111,-54.353 34.111,-91.747c-0,-37.393 -11.17,-67.775 -33.51,-91.145c-22.34,-23.371 -50.9,-35.056 -85.681,-35.056Z" style="fill:#fff;fill-rule:nonzero;"/><path d="M5443.85,380.38l109.374,-0l0,604.166l-109.374,-0l-0,-46.074c-21.343,20.299 -42.752,34.923 -64.228,43.87c-21.476,8.948 -44.753,13.422 -69.83,13.422c-56.29,-0 -104.978,-21.835 -146.062,-65.505c-41.085,-43.67 -61.627,-97.956 -61.627,-162.86c0,-67.308 19.876,-122.463 59.627,-165.465c39.751,-43.002 88.038,-64.503 144.863,-64.503c26.141,0 50.684,4.941 73.627,14.824c22.943,9.882 44.153,24.706 63.63,44.471l-0,-216.346Zm-114.978,258.012c-33.808,0 -61.893,11.953 -84.253,35.858c-22.361,23.905 -33.542,54.554 -33.542,91.947c0,37.66 11.38,68.643 34.139,92.948c22.76,24.306 50.776,36.459 84.05,36.459c34.343,-0 62.827,-11.953 85.453,-35.858c22.625,-23.905 33.938,-55.221 33.938,-93.95c0,-37.927 -11.313,-68.643 -33.938,-92.147c-22.626,-23.504 -51.242,-35.257 -85.847,-35.257Z" style="fill:#fff;fill-rule:nonzero;"/><path d="M6059.48,798.248l-351.362,0c5.075,30.983 18.63,55.622 40.665,73.918c22.035,18.296 50.147,27.444 84.335,27.444c40.865,0 75.988,-14.289 105.368,-42.868l92.148,43.269c-22.97,32.585 -50.481,56.69 -82.532,72.315c-32.051,15.625 -70.112,23.438 -114.183,23.438c-68.376,-0 -124.065,-21.568 -167.067,-64.704c-43.002,-43.135 -64.503,-97.155 -64.503,-162.059c-0,-66.506 21.434,-121.728 64.303,-165.665c42.868,-43.936 96.621,-65.905 161.258,-65.905c68.643,0 124.465,21.969 167.467,65.905c43.002,43.937 64.503,101.963 64.503,174.079l-0.4,20.833Zm-109.375,-86.138c-7.224,-24.305 -21.471,-44.07 -42.74,-59.294c-21.27,-15.225 -45.952,-22.837 -74.047,-22.837c-30.499,0 -57.252,8.547 -80.259,25.641c-14.448,10.684 -27.826,29.514 -40.133,56.49l237.179,0Z" style="fill:#fff;fill-rule:nonzero;"/><path d="M6081.35,548.649l93.75,0l-0,54.888c10.149,-21.635 23.637,-38.061 40.464,-49.279c16.827,-11.218 35.257,-16.827 55.289,-16.827c14.156,0 28.979,3.739 44.471,11.218l-34.055,94.151c-12.82,-6.411 -23.37,-9.616 -31.65,-9.616c-16.827,0 -31.05,10.417 -42.668,31.25c-11.619,20.833 -17.428,61.699 -17.428,122.596l0.4,21.234l0,176.282l-108.573,-0l-0,-435.897Z" style="fill:#fff;fill-rule:nonzero;"/><path d="M6595.21,609.546l-67.708,67.709c-27.511,-27.244 -52.484,-40.866 -74.92,-40.866c-12.286,0 -21.901,2.604 -28.846,7.813c-6.944,5.208 -10.416,11.685 -10.416,19.431c-0,5.876 2.203,11.285 6.61,16.226c4.407,4.941 15.291,11.685 32.652,20.232l40.064,20.032c42.201,20.833 71.181,42.067 86.939,63.702c15.759,21.635 23.638,47.008 23.638,76.122c0,38.728 -14.223,71.047 -42.668,96.955c-28.446,25.908 -66.573,38.862 -114.383,38.862c-63.568,-0 -114.316,-24.84 -152.243,-74.519l67.307,-73.318c12.821,14.958 27.845,27.044 45.072,36.258c17.228,9.215 32.519,13.823 45.874,13.823c14.423,-0 26.041,-3.473 34.855,-10.417c8.814,-6.945 13.222,-14.957 13.222,-24.039c-0,-16.826 -15.893,-33.253 -47.677,-49.278l-36.859,-18.43c-70.512,-35.523 -105.769,-79.994 -105.769,-133.413c0,-34.455 13.288,-63.902 39.864,-88.341c26.576,-24.439 60.564,-36.659 101.963,-36.659c28.312,0 54.955,6.21 79.928,18.63c24.973,12.42 46.14,30.248 63.501,53.485Z" style="fill:#fff;fill-rule:nonzero;"/></g><text x="1170.5px" y="290.238px" style="font-family:'CenturyGothic-Bold', 'Century Gothic', sans-serif;font-weight:700;font-size:126.005px;fill:#fff;">i<tspan x="1195.67px 1266.24px 1296.46px 1372.08px 1447.7px 1472.87px 1498.04px 1576.18px 1654.32px 1729.94px 1765.2px 1843.35px 1896.26px 1921.43px 1997.05px 2067.63px 2143.25px 2173.46px 2249.08px 2324.7px " y="290.238px 290.238px 290.238px 290.238px 290.238px 290.238px 290.238px 290.238px 290.238px 290.238px 290.238px 290.238px 290.238px 290.238px 290.238px 290.238px 290.238px 290.238px 290.238px 290.238px ">n collaborazione con</tspan></text></g></g></svg>