<?xml version="1.0" encoding="UTF-8" standalone="no"?><!DOCTYPE svg PUBLIC "-//W3C//DTD SVG 1.1//EN" "http://www.w3.org/Graphics/SVG/1.1/DTD/svg11.dtd"><svg width="100%" height="100%" viewBox="0 0 6567 992" version="1.1" xmlns="http://www.w3.org/2000/svg" xmlns:xlink="http://www.w3.org/1999/xlink" xml:space="preserve" xmlns:serif="http://www.serif.com/" style="fill-rule:evenodd;clip-rule:evenodd;stroke-linejoin:round;stroke-miterlimit:2;"><g><g id="g34"><path id="path24" d="M480.199,935.113c-0.363,-0.589 3.632,-7.404 8.879,-15.146c13.497,-19.916 23.124,-35.328 29.471,-47.182c3.014,-5.629 7.803,-14.567 10.643,-19.864c5.883,-10.975 10.768,-20.786 10.768,-21.628c-0,-0.315 1.304,-3.433 2.899,-6.929c1.594,-3.495 4.91,-11.231 7.367,-17.19c2.458,-5.96 5.423,-13.002 6.59,-15.651c2.69,-6.109 3.106,-7.314 12.136,-35.213c5.763,-17.803 7.966,-23.174 9.505,-23.174c1.101,-0 7.111,1.113 13.354,2.473c6.244,1.36 14.061,2.984 17.371,3.608c12.056,2.274 33.612,7.701 56.958,14.339c23.055,6.556 58.181,19.419 79.314,29.045c2.778,1.266 5.36,2.301 5.737,2.301c1.31,-0 13.892,8.773 13.892,9.686c0,1.932 -28.966,29.834 -43.339,41.746c-15.516,12.861 -45.667,34.151 -58.388,41.228c-3.972,2.211 -9.119,5.096 -11.436,6.412c-6.309,3.582 -27.27,14.092 -28.105,14.092c-0.4,-0 -4.398,1.672 -8.884,3.717c-4.486,2.044 -9.782,4.455 -11.768,5.358c-7.746,3.52 -48.899,16.134 -62.601,19.188c-7.946,1.772 -16.017,3.721 -17.937,4.333c-1.92,0.612 -5.408,1.112 -7.753,1.112c-2.344,0 -7.274,0.542 -10.956,1.203c-12.694,2.282 -23.05,3.215 -23.717,2.136Zm-103.966,-2.082c-2.317,-0.499 -8.818,-1.586 -14.446,-2.415c-5.628,-0.829 -14.296,-2.586 -19.262,-3.906c-4.966,-1.319 -10.925,-2.812 -13.242,-3.318c-9.227,-2.014 -19.227,-4.991 -30.699,-9.14c-6.621,-2.395 -15.056,-5.337 -18.743,-6.539c-3.687,-1.201 -10.73,-4.08 -15.65,-6.397c-4.921,-2.317 -13.822,-6.502 -19.781,-9.3c-27.923,-13.111 -63.808,-36.802 -90.29,-59.607c-14.66,-12.624 -41.654,-38.967 -42.529,-41.502c-0.367,-1.065 10.74,-6.532 22.063,-10.859c1.324,-0.506 4.385,-1.788 6.803,-2.848c2.417,-1.061 4.726,-1.929 5.13,-1.929c0.403,0 3.03,-1.058 5.837,-2.351c13.569,-6.253 63.472,-22.949 68.551,-22.936c1.127,0.003 3.294,-0.493 4.815,-1.104c3.315,-1.329 24.188,-6.586 33.464,-8.428c3.642,-0.723 12.31,-2.379 19.262,-3.68l12.641,-2.366l2.107,2.508c1.158,1.379 2.106,3.171 2.106,3.982c0,1.819 14.7,46.398 17.489,53.035c1.112,2.649 2.996,6.982 4.185,9.631c1.189,2.649 4.971,11.552 8.403,19.785c3.433,8.233 8.02,18.255 10.194,22.271c2.173,4.017 6.929,12.991 10.568,19.943c10.989,20.994 22.608,39.884 36.469,59.291l6.663,9.33l-3.947,-0.121c-2.171,-0.067 -5.843,-0.53 -8.161,-1.03l0,0Zm47.93,-43.091c-10.95,-15.729 -18.842,-27.985 -23.561,-36.587c-13.492,-24.59 -20.694,-38.762 -24.999,-49.189c-1.777,-4.304 -4.202,-9.992 -5.389,-12.641c-5.452,-12.163 -8.719,-20.812 -15.633,-41.376c-5.479,-16.296 -7.081,-22.468 -6.089,-23.46c2.826,-2.826 77.365,-5.575 114.236,-4.212c21.262,0.785 55.635,2.784 57.669,3.353c1.526,0.427 -11.518,41.278 -17.141,53.684c-1.508,3.326 -4.747,10.91 -7.199,16.854c-6.032,14.624 -7.803,18.706 -9.651,22.244c-0.865,1.656 -4.797,9.24 -8.739,16.855c-10.524,20.329 -12.755,24.113 -25.777,43.711c-14.919,22.453 -15.778,23.621 -17.392,23.667c-0.729,0.023 -5.381,-5.785 -10.335,-12.903Zm366.83,-144.171c-5.945,-3.638 -11.379,-6.614 -12.075,-6.614c-1.473,-0 -18.663,-7.133 -34.902,-14.483c-16.492,-7.464 -70.693,-25.179 -95.708,-31.282c-8.442,-2.059 -15.189,-3.576 -21.67,-4.872c-7.375,-1.476 -11.626,-2.36 -26.329,-5.474l-10.076,-2.135l0.759,-6.09c0.418,-3.35 1.243,-8.528 1.834,-11.508c3.474,-17.522 5.133,-26.823 6.122,-34.31c0.612,-4.635 1.696,-12.49 2.409,-17.456c2.644,-18.419 5.014,-44.556 5.933,-65.434c0.716,-16.259 1.355,-21.751 2.623,-22.554c2.357,-1.493 271.6,-1.429 272.522,0.065c0.8,1.293 -2.399,34.886 -4.13,43.38c-0.607,2.979 -1.721,8.938 -2.476,13.242c-3.573,20.391 -13.681,56.902 -19.831,71.631c-0.83,1.986 -3.022,7.403 -4.873,12.038c-5.194,13.011 -16.491,36.304 -22.674,46.75c-3.07,5.186 -5.582,9.71 -5.582,10.052c0,0.54 -20.595,31.695 -20.939,31.675c-0.071,-0.003 -4.992,-2.983 -10.937,-6.621l-0,-0Zm-717.351,-6.915c-16.711,-22.159 -42.526,-74.066 -52.528,-105.623c-8.929,-28.168 -14.035,-49.943 -17.366,-74.055c-3.364,-24.35 -4.187,-34.814 -2.865,-36.417c1.627,-1.971 253.777,-2.224 257.45,-0.258c2.085,1.115 2.329,2.627 2.329,14.403c-0,12.711 0.448,18.438 4.282,54.777c2.472,23.419 5.298,42.558 9.6,65.009c3.96,20.663 3.988,20.929 2.383,22.261c-0.8,0.664 -4.11,1.731 -7.355,2.371c-3.245,0.639 -9.693,2.013 -14.327,3.052c-4.635,1.039 -10.865,2.34 -13.845,2.889c-9.756,1.8 -52.645,13.185 -59.591,15.819c-1.325,0.502 -8.638,2.905 -16.253,5.34c-11.453,3.662 -23.357,8.149 -46.349,17.469c-1.324,0.537 -5.537,2.387 -9.363,4.111c-3.825,1.723 -7.489,3.134 -8.142,3.134c-0.653,-0 -2.128,0.504 -3.278,1.121c-2.566,1.377 -20.342,8.51 -21.207,8.51c-0.344,-0 -1.952,-1.761 -3.575,-3.913l-0,-0Zm257.239,-67.314c-0.7,-0.884 -1.592,-3.775 -1.982,-6.423c-0.39,-2.649 -1.595,-9.42 -2.677,-15.048c-1.083,-5.628 -2.383,-13.484 -2.889,-17.457c-0.506,-3.972 -2.048,-15.891 -3.428,-26.485c-3.784,-29.07 -7.962,-81.027 -6.63,-82.465c0.307,-0.331 54.28,-0.602 119.941,-0.602l119.384,0l-0.004,16.855c-0.009,17.937 -1.983,45.154 -4.772,65.724c-0.934,6.89 -2.031,15.236 -2.438,18.546c-1.262,10.261 -6.801,39.507 -8.322,43.942c-1.692,4.932 0.535,4.795 -29.005,1.78c-39.212,-4.002 -144.924,-2.427 -172.222,2.567c-2.339,0.428 -4.144,0.087 -4.954,-0.934l-0.002,-0Zm-330.61,-204.853c-1.785,-4.652 5.602,-53.189 11.941,-78.46c5.872,-23.405 10.32,-37.298 19.658,-61.397c3.459,-8.925 15.379,-33.564 22.133,-45.747c3.304,-5.96 6.596,-11.919 7.316,-13.243c0.72,-1.324 2.951,-4.846 4.956,-7.825c2.006,-2.98 4.399,-6.907 5.319,-8.728c0.919,-1.821 2.662,-3.311 3.874,-3.311c1.211,0 6.943,2.118 12.738,4.707c35.277,15.761 80.931,32.794 107.113,39.963c21.539,5.897 42.844,11.307 51.498,13.075c28.741,5.873 30.164,6.31 29.782,9.14c-0.334,2.48 -1.447,8.378 -4.529,24.007c-2.029,10.289 -2.492,13.678 -6.324,46.349c-3.502,29.86 -5.097,50.345 -5.09,65.389c0.004,7.162 -0.555,14.069 -1.24,15.35c-1.22,2.28 -3.936,2.328 -129.889,2.328c-105.763,0 -128.752,-0.284 -129.256,-1.597Zm312.954,-1.713c-0.302,-0.497 -0.092,-5.237 0.466,-10.534c0.559,-5.297 1.045,-13.395 1.08,-17.996c0.036,-4.6 0.596,-12.726 1.245,-18.058c0.65,-5.331 2.036,-16.736 3.081,-25.344c2.41,-19.846 5.32,-37.101 9.54,-56.581c3.616,-16.693 2.941,-15.695 10.367,-15.329c3.592,0.176 10.594,0.842 15.56,1.479c30.741,3.944 93.821,4.787 132.295,1.768c12.84,-1.008 23.682,-2.04 24.092,-2.293c0.41,-0.254 6.075,-0.616 12.589,-0.806c13.577,-0.395 13.22,-0.642 15.099,10.45c0.664,3.926 2.066,11.743 3.115,17.371c1.049,5.628 2.408,14.025 3.02,18.66c5.227,39.579 8.428,72.967 8.428,87.902l0,10.214l-119.714,-0c-65.842,-0 -119.961,-0.407 -120.263,-0.903Zm294.932,-5.418c-0.418,-3.476 -0.764,-11.905 -0.77,-18.73c-0.005,-6.826 -0.547,-17.39 -1.202,-23.476c-0.656,-6.086 -1.75,-16.753 -2.432,-23.706c-1.156,-11.779 -2.319,-21.359 -4.75,-39.125c-0.544,-3.973 -1.886,-11.828 -2.983,-17.457c-4.309,-22.103 -4.433,-23.365 -2.429,-24.851c1.02,-0.757 4.404,-1.742 7.519,-2.189c3.116,-0.446 7.561,-1.279 9.878,-1.849c2.317,-0.571 7.464,-1.685 11.437,-2.477c3.973,-0.792 11.557,-2.497 16.854,-3.79c5.297,-1.292 11.527,-2.799 13.845,-3.347c3.929,-0.929 15.904,-4.209 27.087,-7.419c16.509,-4.738 46.771,-15.336 63.805,-22.345c12.6,-5.184 15.97,-6.631 29.155,-12.522c3.125,-1.395 6.781,-3.015 8.127,-3.599c1.345,-0.584 6.503,-3.439 11.461,-6.343c4.959,-2.905 9.665,-5.032 10.458,-4.728c1.212,0.465 11.627,15.729 18.381,26.938c9.843,16.335 23.398,43.789 31.156,63.104c4.973,12.38 14.606,41.551 16.896,51.165c0.71,2.979 2.465,10.293 3.9,16.252c2.926,12.148 3.711,17.055 7.125,44.543c1.315,10.594 2.137,19.939 1.826,20.767c-0.449,1.191 -28.973,1.505 -137.076,1.505l-136.509,-0l-0.759,-6.321Zm-204.836,-188.721c-13.905,-0.451 -32.46,-1.552 -41.233,-2.445c-17.264,-1.759 -17.114,-1.669 -14.732,-8.892c0.67,-2.033 3.946,-12.094 7.28,-22.357c3.333,-10.263 7.119,-20.956 8.412,-23.763c1.293,-2.807 2.351,-5.434 2.351,-5.837c-0,-0.404 0.867,-2.712 1.928,-5.13c1.061,-2.417 2.359,-5.479 2.886,-6.803c0.526,-1.324 2.144,-5.387 3.595,-9.029c5.532,-13.885 22.931,-47.031 33.176,-63.203c10.667,-16.838 23.413,-34.11 26.429,-35.816c1.098,-0.621 3.644,1.824 8.152,7.826c7.661,10.201 27.621,41.196 31.587,49.049c1.507,2.984 5.969,11.759 9.916,19.5c3.946,7.742 8.396,16.951 9.887,20.466c1.492,3.515 3.404,8.017 4.249,10.003c0.845,1.986 2.741,6.591 4.213,10.233c1.473,3.642 3.381,8.246 4.241,10.233c2.95,6.812 7.817,20.517 7.817,22.012c-0,0.823 0.487,2.437 1.082,3.586c1.315,2.542 7.019,20.429 7.559,23.706c0.351,2.133 -0.794,2.496 -12.253,3.883c-10.534,1.274 -76.16,4.375 -80.057,3.782c-0.662,-0.1 -12.581,-0.552 -26.485,-1.004Zm174.687,-11.82c-0.366,-0.591 -4.203,-11.849 -8.527,-25.018c-4.325,-13.168 -8.402,-24.883 -9.061,-26.033c-0.659,-1.15 -1.198,-2.625 -1.198,-3.278c-0,-0.653 -1.296,-4.046 -2.879,-7.54c-1.583,-3.495 -5.617,-13.125 -8.965,-21.402c-12.613,-31.187 -39.089,-79.478 -59.734,-108.95c-7.9,-11.279 -7.918,-11.816 -0.359,-10.885c28.553,3.517 42.288,5.726 49.063,7.89c1.656,0.529 7.073,1.84 12.039,2.914c11.33,2.449 16.626,3.905 26.485,7.279c4.304,1.472 12.43,4.191 18.058,6.041c5.628,1.849 13.754,4.957 18.058,6.905c4.304,1.948 9.721,4.368 12.039,5.378c12.352,5.384 20.013,9.208 32.943,16.445c7.856,4.396 14.494,7.993 14.751,7.993c0.836,0 34.619,23.215 40.191,27.619c13.478,10.652 29.258,24.706 42.934,38.24c8.167,8.081 14.849,14.942 14.849,15.246c0,0.823 -9.531,5.995 -15.309,8.307c-4.833,1.933 -8.14,3.371 -21.258,9.241c-18.26,8.171 -56.599,21.641 -77.199,27.123c-5.959,1.586 -14.085,3.781 -18.058,4.877c-9.083,2.507 -18.41,4.734 -27.689,6.614c-3.972,0.804 -10.473,2.173 -14.446,3.042c-11.894,2.601 -16.029,3.083 -16.728,1.952l-0,-0Zm-301.696,-2.79c-5.628,-1.253 -12.941,-2.808 -16.252,-3.455c-9.656,-1.887 -14.897,-3.131 -27.689,-6.573c-6.621,-1.781 -13.664,-3.651 -15.65,-4.155c-6.265,-1.587 -21.368,-6.275 -29.495,-9.155c-4.304,-1.525 -11.347,-3.962 -15.65,-5.416c-4.304,-1.454 -9.451,-3.335 -11.437,-4.179c-1.987,-0.844 -10.654,-4.374 -19.262,-7.843c-21.964,-8.854 -30.944,-13.095 -30.489,-14.398c0.216,-0.618 5.129,-6.249 10.919,-12.514c11.063,-11.971 37.642,-35.541 52.017,-46.129c4.667,-3.437 11.891,-8.757 16.055,-11.823c6.753,-4.972 20.57,-13.523 38.177,-23.624c5.731,-3.288 16.332,-8.539 34.912,-17.293c12.012,-5.66 43.784,-17.324 54.174,-19.889c3.311,-0.818 10.624,-2.697 16.252,-4.176c12.188,-3.204 19.604,-4.738 34.912,-7.224c6.291,-1.021 13.19,-2.142 15.332,-2.49c3.357,-0.547 3.788,-0.337 3.124,1.524c-0.424,1.186 -2.496,4.324 -4.605,6.973c-16.466,20.677 -49.2,79.714 -62.745,113.164c-8.696,21.475 -9.244,22.819 -11.039,27.087c-1.455,3.46 -5.194,14.871 -11.639,35.514c-5.249,16.814 -5.775,18.009 -8.012,18.205c-0.922,0.081 -6.282,-0.878 -11.91,-2.131Z" style="fill:#fff;fill-rule:nonzero;"/></g><path d="M1020.56,0l0,991.161l16.827,-0l-0,-991.161l-16.827,0Z" style="fill:#fff;"/><g><g><path d="M1708.63,275.275l-78.457,74.794c-53.373,-56.411 -113.417,-84.616 -180.132,-84.616c-56.306,-0 -103.741,19.249 -142.302,57.748c-38.562,38.499 -57.843,85.956 -57.843,142.372c0,39.3 8.54,74.19 25.619,104.67c17.08,30.48 41.231,54.409 72.454,71.787c31.222,17.377 65.914,26.066 104.075,26.066c32.557,0 62.31,-6.082 89.262,-18.248c26.951,-12.165 56.574,-34.288 88.867,-66.368l76.053,79.358c-43.536,42.489 -84.669,71.949 -123.398,88.382c-38.728,16.432 -82.932,24.649 -132.612,24.649c-91.613,-0 -166.599,-29.047 -224.959,-87.14c-58.36,-58.093 -87.54,-132.545 -87.54,-223.357c-0,-58.76 13.288,-110.977 39.864,-156.65c26.575,-45.673 64.636,-82.399 114.182,-110.176c49.546,-27.778 102.898,-41.667 160.056,-41.667c48.611,-0 95.419,10.266 140.425,30.799c45.005,20.533 83.8,49.732 116.386,87.597Z" style="fill:#fff;fill-rule:nonzero;"/><path d="M1773.38,171.703l118.853,-0c65.095,-0 111.45,5.809 139.063,17.428c27.612,11.618 49.823,30.916 66.631,57.892c16.808,26.977 25.212,58.894 25.212,95.753c0,38.729 -9.28,71.114 -27.841,97.156c-18.561,26.041 -46.536,45.739 -83.925,59.094l139.611,262.019l-122.634,-0l-132.524,-249.599l-10.267,-0l0,249.599l-112.179,-0l0,-589.342Zm112.179,230.368l35.15,-0c35.678,-0 60.24,-4.69 73.687,-14.069c13.446,-9.38 20.17,-24.923 20.17,-46.628c-0,-12.862 -3.329,-24.05 -9.985,-33.563c-6.656,-9.513 -15.576,-16.347 -26.758,-20.502c-11.183,-4.154 -31.685,-6.231 -61.508,-6.231l-30.756,-0l0,120.993Z" style="fill:#fff;fill-rule:nonzero;"/><path d="M2257.87,171.703l109.299,-0l136.619,411.057l137.858,-411.057l109.231,-0l98.864,589.342l-108.48,-0l-63.195,-372.195l-125.2,372.195l-98.864,-0l-124.092,-372.195l-64.704,372.195l-109.374,-0l102.038,-589.342Z" style="fill:#fff;fill-rule:nonzero;"/><path d="M3087,171.703l321.715,-0l-0,109.775l-210.337,0l0,106.571l210.337,-0l-0,107.772l-210.337,-0l0,155.048l210.337,-0l-0,110.176l-321.715,-0l0,-589.342Z" style="fill:#fff;fill-rule:nonzero;"/><path d="M3568.81,325.148l-0,48.077c19.764,-19.765 41.132,-34.589 64.102,-44.471c22.97,-9.883 47.543,-14.824 73.718,-14.824c56.891,0 105.235,21.501 145.032,64.503c39.797,43.002 59.695,98.157 59.695,165.465c0,64.904 -20.566,119.19 -61.698,162.86c-41.133,43.67 -89.877,65.505 -146.234,65.505c-25.107,-0 -48.478,-4.474 -70.112,-13.422c-21.635,-8.947 -43.136,-23.571 -64.503,-43.87l-0,205.529l-108.574,-0l-0,-595.352l108.574,0Zm114.983,89.743c-34.455,0 -63.034,11.753 -85.737,35.257c-22.703,23.504 -34.054,54.22 -34.054,92.147c-0,38.729 11.351,70.045 34.054,93.95c22.703,23.905 51.282,35.858 85.737,35.858c33.387,-0 61.499,-12.153 84.335,-36.459c22.837,-24.305 34.255,-55.288 34.255,-92.948c-0,-37.393 -11.218,-68.042 -33.654,-91.947c-22.436,-23.905 -50.748,-35.858 -84.936,-35.858Z" style="fill:#fff;fill-rule:nonzero;"/><path d="M4003.54,145.661c19.176,0 35.622,6.944 49.338,20.833c13.716,13.889 20.573,30.716 20.573,50.481c0,19.498 -6.791,36.124 -20.373,49.88c-13.582,13.755 -29.828,20.633 -48.737,20.633c-19.444,-0 -36.023,-7.011 -49.739,-21.034c-13.716,-14.022 -20.574,-31.049 -20.574,-51.081c0,-19.231 6.792,-35.657 20.374,-49.279c13.582,-13.622 29.961,-20.433 49.138,-20.433Zm-54.688,179.487l109.375,0l0,435.897l-109.375,-0l0,-435.897Z" style="fill:#fff;fill-rule:nonzero;"/><path d="M4543.24,413.289l-91.051,50.08c-17.115,-17.895 -34.03,-30.315 -50.744,-37.26c-16.714,-6.944 -36.302,-10.416 -58.763,-10.416c-40.915,-0 -74.008,12.201 -99.277,36.602c-25.27,24.402 -37.905,55.668 -37.905,93.8c0,37.072 12.168,67.341 36.503,90.808c24.334,23.466 56.29,35.2 95.865,35.2c48.941,-0 87.048,-16.694 114.321,-50.08l86.244,59.05c-46.742,60.793 -112.714,91.19 -197.917,91.19c-76.656,-0 -136.685,-22.703 -180.088,-68.109c-43.402,-45.406 -65.104,-98.558 -65.104,-159.455c0,-42.201 10.551,-81.063 31.651,-116.586c21.1,-35.524 50.547,-63.435 88.341,-83.734c37.794,-20.299 80.062,-30.449 126.803,-30.449c43.269,0 82.131,8.614 116.586,25.841c34.455,17.228 62.634,41.734 84.535,73.518Z" style="fill:#fff;fill-rule:nonzero;"/><path d="M4805.51,313.93c41.132,0 79.794,10.283 115.985,30.849c36.191,20.567 64.437,48.478 84.736,83.734c20.299,35.257 30.448,73.317 30.448,114.183c0,41.132 -10.216,79.594 -30.649,115.384c-20.432,35.791 -48.277,63.769 -83.533,83.934c-35.257,20.166 -74.119,30.249 -116.587,30.249c-62.5,-0 -115.852,-22.236 -160.056,-66.707c-44.204,-44.471 -66.306,-98.491 -66.306,-162.059c0,-68.109 24.974,-124.866 74.92,-170.272c43.804,-39.53 94.151,-59.295 151.042,-59.295Zm1.803,102.965c-33.98,-0 -62.273,11.819 -84.88,35.456c-22.607,23.638 -33.91,53.887 -33.91,90.745c-0,37.928 11.17,68.644 33.51,92.148c22.339,23.504 50.633,35.256 84.879,35.256c34.246,0 62.74,-11.886 85.48,-35.657c22.741,-23.771 34.111,-54.353 34.111,-91.747c0,-37.393 -11.17,-67.775 -33.51,-91.145c-22.34,-23.371 -50.9,-35.056 -85.68,-35.056Z" style="fill:#fff;fill-rule:nonzero;"/><path d="M5406.71,156.879l109.375,-0l-0,604.166l-109.375,-0l-0,-46.074c-21.343,20.299 -42.752,34.923 -64.228,43.87c-21.476,8.948 -44.753,13.422 -69.83,13.422c-56.29,-0 -104.977,-21.835 -146.062,-65.505c-41.084,-43.67 -61.626,-97.956 -61.626,-162.86c-0,-67.308 19.875,-122.463 59.626,-165.465c39.751,-43.002 88.039,-64.503 144.863,-64.503c26.142,0 50.684,4.941 73.627,14.824c22.943,9.882 44.153,24.706 63.63,44.471l-0,-216.346Zm-114.978,258.012c-33.808,0 -61.892,11.953 -84.253,35.858c-22.361,23.905 -33.541,54.554 -33.541,91.947c-0,37.66 11.379,68.643 34.139,92.948c22.759,24.306 50.776,36.459 84.05,36.459c34.342,-0 62.826,-11.953 85.452,-35.858c22.626,-23.905 33.939,-55.221 33.939,-93.95c-0,-37.927 -11.313,-68.643 -33.939,-92.147c-22.626,-23.504 -51.241,-35.257 -85.847,-35.257Z" style="fill:#fff;fill-rule:nonzero;"/><path d="M6022.33,574.747l-351.362,0c5.075,30.983 18.63,55.622 40.665,73.918c22.036,18.296 50.147,27.444 84.335,27.444c40.866,0 75.988,-14.289 105.369,-42.868l92.147,43.269c-22.97,32.585 -50.481,56.69 -82.532,72.315c-32.051,15.625 -70.112,23.438 -114.182,23.438c-68.376,-0 -124.066,-21.568 -167.068,-64.704c-43.002,-43.135 -64.503,-97.155 -64.503,-162.059c0,-66.506 21.435,-121.728 64.303,-165.665c42.869,-43.936 96.621,-65.905 161.258,-65.905c68.643,0 124.466,21.969 167.468,65.905c43.002,43.937 64.503,101.963 64.503,174.079l-0.401,20.833Zm-109.375,-86.138c-7.224,-24.305 -21.471,-44.07 -42.74,-59.294c-21.269,-15.225 -45.952,-22.837 -74.046,-22.837c-30.499,0 -57.252,8.547 -80.26,25.641c-14.448,10.684 -27.826,29.514 -40.133,56.49l237.179,0Z" style="fill:#fff;fill-rule:nonzero;"/><path d="M6044.2,325.148l93.75,0l-0,54.888c10.15,-21.635 23.638,-38.061 40.465,-49.279c16.827,-11.218 35.256,-16.827 55.288,-16.827c14.156,0 28.98,3.739 44.471,11.218l-34.054,94.151c-12.821,-6.411 -23.371,-9.616 -31.651,-9.616c-16.827,0 -31.05,10.417 -42.668,31.25c-11.619,20.833 -17.428,61.699 -17.428,122.596l0.401,21.234l-0,176.282l-108.574,-0l0,-435.897Z" style="fill:#fff;fill-rule:nonzero;"/><path d="M6558.07,386.045l-67.709,67.709c-27.51,-27.244 -52.484,-40.866 -74.919,-40.866c-12.287,0 -21.902,2.604 -28.847,7.813c-6.944,5.208 -10.416,11.685 -10.416,19.431c-0,5.876 2.203,11.285 6.61,16.226c4.407,4.941 15.292,11.685 32.653,20.232l40.064,20.032c42.2,20.833 71.18,42.067 86.939,63.702c15.758,21.635 23.637,47.008 23.637,76.122c0,38.728 -14.222,71.047 -42.668,96.955c-28.445,25.908 -66.573,38.862 -114.383,38.862c-63.568,-0 -114.316,-24.84 -152.243,-74.519l67.308,-73.318c12.82,14.958 27.844,27.044 45.072,36.258c17.227,9.215 32.518,13.823 45.873,13.823c14.423,-0 26.042,-3.473 34.856,-10.417c8.814,-6.945 13.221,-14.957 13.221,-24.039c-0,-16.826 -15.892,-33.253 -47.676,-49.278l-36.859,-18.43c-70.513,-35.523 -105.769,-79.994 -105.769,-133.413c-0,-34.455 13.287,-63.902 39.863,-88.341c26.576,-24.439 60.564,-36.659 101.963,-36.659c28.312,0 54.955,6.21 79.928,18.63c24.973,12.42 46.141,30.248 63.502,53.485Z" style="fill:#fff;fill-rule:nonzero;"/></g></g></g></svg>