<?xml version="1.0" encoding="UTF-8" standalone="no"?><!DOCTYPE svg PUBLIC "-//W3C//DTD SVG 1.1//EN" "http://www.w3.org/Graphics/SVG/1.1/DTD/svg11.dtd"><svg width="100%" height="100%" viewBox="0 0 4117 4109" version="1.1" xmlns="http://www.w3.org/2000/svg" xmlns:xlink="http://www.w3.org/1999/xlink" xml:space="preserve" xmlns:serif="http://www.serif.com/" style="fill-rule:evenodd;clip-rule:evenodd;stroke-linejoin:round;stroke-miterlimit:2;"><g id="g34"><path id="path24" d="M2239.85,4104.33c-1.697,-2.744 16.938,-34.533 41.411,-70.645c62.963,-92.901 107.864,-164.788 137.47,-220.08c14.058,-26.253 36.396,-67.943 49.638,-92.652c27.442,-51.194 50.23,-96.952 50.23,-100.885c-0,-1.467 6.086,-16.01 13.52,-32.315c7.44,-16.306 22.9,-52.388 34.367,-80.185c11.462,-27.797 25.295,-60.645 30.736,-72.999c12.55,-28.495 14.49,-34.12 56.611,-164.25c26.88,-83.042 37.153,-108.094 44.333,-108.094c5.134,-0 33.167,5.192 62.289,11.538c29.121,6.34 65.583,13.917 81.025,16.826c56.238,10.61 156.78,35.917 265.678,66.884c107.538,30.577 271.38,90.576 369.952,135.483c12.958,5.902 24.999,10.728 26.762,10.728c6.109,0 64.796,40.921 64.796,45.179c0,9.013 -135.11,139.156 -202.148,194.726c-72.378,59.982 -213.012,159.287 -272.35,192.301c-18.529,10.314 -42.535,23.769 -53.346,29.908c-29.423,16.707 -127.191,65.73 -131.088,65.73c-1.869,0 -20.517,7.801 -41.441,17.335c-20.925,9.54 -45.623,20.782 -54.89,24.993c-36.13,16.418 -228.088,75.259 -291.997,89.506c-37.064,8.262 -74.714,17.358 -83.668,20.209c-8.955,2.851 -25.225,5.187 -36.16,5.187c-10.935,-0 -33.93,2.525 -51.105,5.612c-59.213,10.646 -107.514,14.993 -110.625,9.96Zm-484.942,-9.705c-10.811,-2.33 -41.134,-7.405 -67.381,-11.267c-26.253,-3.868 -66.683,-12.065 -89.849,-18.222c-23.16,-6.15 -50.957,-13.117 -61.768,-15.477c-43.038,-9.392 -89.677,-23.278 -143.189,-42.63c-30.89,-11.172 -70.225,-24.899 -87.424,-30.499c-17.198,-5.607 -50.052,-19.032 -73.005,-29.838c-22.947,-10.811 -64.471,-30.328 -92.268,-43.38c-130.237,-61.159 -297.621,-171.661 -421.151,-278.034c-68.374,-58.888 -194.288,-181.761 -198.369,-193.584c-1.715,-4.968 50.094,-30.47 102.908,-50.649c6.18,-2.36 20.457,-8.339 31.735,-13.289c11.279,-4.945 22.043,-8.996 23.929,-8.996c1.881,0 14.135,-4.932 27.223,-10.965c63.294,-29.163 296.066,-107.041 319.752,-106.982c5.258,0.012 15.366,-2.301 22.463,-5.146c15.459,-6.204 112.819,-30.724 156.088,-39.317c16.991,-3.371 57.421,-11.095 89.848,-17.163l58.959,-11.036l9.83,11.698c5.405,6.435 9.823,14.792 9.823,18.577c0,8.481 68.57,216.419 81.575,247.374c5.193,12.354 13.975,32.569 19.523,44.924c5.547,12.355 23.184,53.879 39.193,92.285c16.016,38.401 37.408,85.147 47.551,103.884c10.137,18.73 32.321,60.591 49.295,93.018c51.258,97.928 105.45,186.038 170.104,276.561l31.086,43.517l-18.417,-0.562c-10.125,-0.313 -27.253,-2.472 -38.064,-4.802Zm223.563,-201.001c-51.069,-73.366 -87.885,-130.533 -109.898,-170.655c-62.933,-114.7 -96.526,-180.803 -116.605,-229.442c-8.285,-20.073 -19.599,-46.604 -25.135,-58.958c-25.431,-56.736 -40.672,-97.076 -72.922,-192.993c-25.556,-76.016 -33.025,-104.806 -28.4,-109.431c13.182,-13.183 360.861,-26.005 532.847,-19.647c99.175,3.661 259.504,12.988 268.99,15.643c7.121,1.987 -53.724,192.537 -79.954,250.402c-7.032,15.513 -22.143,50.892 -33.575,78.618c-28.14,68.208 -36.396,87.246 -45.019,103.753c-4.033,7.724 -22.373,43.097 -40.761,78.618c-49.088,94.822 -59.497,112.47 -120.236,203.886c-69.592,104.729 -73.596,110.182 -81.125,110.395c-3.401,0.107 -25.094,-26.986 -48.207,-60.189Zm1711.05,-672.47c-27.732,-16.968 -53.074,-30.854 -56.327,-30.854c-6.872,-0 -87.051,-33.274 -162.795,-67.553c-76.926,-34.817 -329.741,-117.45 -446.423,-145.909c-39.376,-9.605 -70.852,-16.684 -101.073,-22.735c-34.409,-6.878 -54.234,-11 -122.809,-25.525l-47.006,-9.96l3.542,-28.406c1.952,-15.625 5.796,-39.779 8.552,-53.677c16.205,-81.735 23.947,-125.116 28.56,-160.039c2.856,-21.622 7.913,-58.261 11.237,-81.421c12.331,-85.916 23.385,-207.832 27.673,-305.215c3.341,-75.838 6.322,-101.453 12.236,-105.202c10.995,-6.961 1266.86,-6.66 1271.16,0.301c3.725,6.033 -11.196,162.73 -19.269,202.344c-2.833,13.898 -8.031,41.695 -11.545,61.774c-16.672,95.106 -63.82,265.406 -92.504,334.111c-3.874,9.268 -14.099,34.534 -22.728,56.156c-24.231,60.686 -76.926,169.33 -105.764,218.057c-14.318,24.189 -26.034,45.291 -26.034,46.888c-0,2.519 -96.065,147.838 -97.668,147.749c-0.331,-0.018 -23.29,-13.916 -51.016,-30.884Zm-3346.03,-32.256c-77.944,-103.357 -198.357,-345.479 -245.015,-492.672c-41.642,-131.385 -65.464,-232.955 -81.001,-345.42c-15.69,-113.583 -19.528,-162.393 -13.36,-169.868c7.588,-9.191 1183.72,-10.374 1200.86,-1.201c9.723,5.199 10.859,12.254 10.859,67.18c-0,59.29 2.087,86.004 19.978,255.506c11.527,109.229 24.71,198.505 44.777,303.228c18.47,96.378 18.6,97.62 11.112,103.83c-3.732,3.099 -19.174,8.078 -34.308,11.059c-15.135,2.987 -45.208,9.392 -66.825,14.242c-21.622,4.843 -50.679,10.911 -64.577,13.472c-45.51,8.398 -245.564,61.502 -277.962,73.786c-6.175,2.342 -40.288,13.549 -75.809,24.905c-53.423,17.086 -108.946,38.016 -216.188,81.486c-6.18,2.508 -25.833,11.136 -43.677,19.174c-17.837,8.043 -34.929,14.62 -37.975,14.62c-3.046,-0 -9.93,2.354 -15.288,5.234c-11.97,6.417 -94.888,39.69 -98.921,39.69c-1.603,0 -9.108,-8.215 -16.678,-18.251Zm1199.88,-313.986c-3.271,-4.122 -7.428,-17.601 -9.25,-29.955c-1.815,-12.355 -7.434,-43.943 -12.485,-70.19c-5.05,-26.254 -11.113,-62.892 -13.472,-81.427c-2.36,-18.53 -9.558,-74.123 -15.992,-123.537c-17.654,-135.595 -37.136,-377.942 -30.926,-384.654c1.431,-1.544 253.188,-2.804 559.462,-2.804l556.853,0l-0.018,78.612c-0.042,83.669 -9.25,210.623 -22.261,306.57c-4.353,32.137 -9.475,71.065 -11.373,86.507c-5.885,47.858 -31.718,184.275 -38.815,204.963c-7.896,23 2.496,22.367 -135.288,8.303c-182.909,-18.671 -675.989,-11.319 -803.316,11.971c-10.912,1.999 -19.334,0.408 -23.107,-4.359l-0.012,0Zm-1542.11,-955.519c-8.328,-21.699 26.129,-248.095 55.7,-365.971c27.388,-109.171 48.135,-173.973 91.694,-286.385c16.128,-41.624 71.733,-156.549 103.238,-213.379c15.407,-27.796 30.766,-55.593 34.125,-61.768c3.36,-6.18 13.763,-22.604 23.113,-36.502c9.356,-13.899 20.522,-32.221 24.81,-40.714c4.288,-8.493 12.42,-15.442 18.068,-15.442c5.654,0 32.392,9.883 59.42,21.96c164.546,73.513 377.493,152.959 499.621,186.398c100.465,27.507 199.842,52.743 240.206,60.993c134.058,27.395 140.7,29.43 138.914,42.63c-1.556,11.568 -6.749,39.075 -21.126,111.98c-9.463,47.994 -11.616,63.797 -29.494,216.194c-16.335,139.274 -23.775,234.83 -23.74,305.002c0.012,33.404 -2.59,65.618 -5.79,71.592c-5.689,10.64 -18.358,10.864 -605.858,10.864c-493.317,0 -600.554,-1.325 -602.901,-7.452Zm1459.75,-7.99c-1.408,-2.318 -0.432,-24.425 2.17,-49.135c2.608,-24.71 4.873,-62.478 5.039,-83.941c0.171,-21.456 2.78,-59.361 5.808,-84.23c3.028,-24.863 9.498,-78.062 14.371,-118.213c11.243,-92.57 24.81,-173.056 44.499,-263.922c16.867,-77.861 13.715,-73.206 48.355,-71.497c16.754,0.822 49.413,3.927 72.579,6.902c143.384,18.393 437.616,22.326 617.083,8.244c59.888,-4.702 110.46,-9.516 112.37,-10.699c1.917,-1.182 28.341,-2.874 58.723,-3.755c63.329,-1.845 61.667,-2.999 70.426,48.739c3.099,18.316 9.64,54.777 14.531,81.031c4.891,26.247 11.232,65.417 14.088,87.033c24.378,184.618 39.312,340.352 39.312,410.015l-0,47.639l-558.397,0c-307.119,0 -559.55,-1.892 -560.957,-4.211Zm1375.68,-25.271c-1.946,-16.211 -3.56,-55.529 -3.59,-87.365c-0.018,-31.836 -2.549,-81.114 -5.607,-109.502c-3.057,-28.382 -8.161,-78.144 -11.343,-110.572c-5.394,-54.943 -10.817,-99.631 -22.155,-182.501c-2.537,-18.529 -8.794,-55.168 -13.916,-81.421c-20.096,-103.102 -20.67,-108.987 -11.326,-115.919c4.761,-3.53 20.54,-8.126 35.072,-10.207c14.531,-2.082 35.266,-5.968 46.071,-8.629c10.812,-2.662 34.817,-7.86 53.347,-11.551c18.535,-3.696 53.908,-11.651 78.617,-17.677c24.71,-6.033 53.766,-13.053 64.578,-15.614c18.328,-4.335 74.188,-19.635 126.345,-34.604c77.009,-22.101 218.164,-71.532 297.615,-104.226c58.776,-24.184 74.49,-30.932 135.992,-58.409c14.572,-6.512 31.629,-14.064 37.904,-16.791c6.275,-2.72 30.334,-16.039 53.465,-29.588c23.13,-13.544 45.078,-23.468 48.78,-22.049c5.648,2.165 54.233,73.366 85.733,125.648c45.912,76.193 109.141,204.253 145.324,294.345c23.195,57.746 68.131,193.814 78.813,238.656c3.312,13.898 11.497,48.012 18.192,75.808c13.644,56.659 17.311,79.553 33.232,207.767c6.139,49.413 9.971,93.001 8.516,96.863c-2.093,5.559 -135.14,7.02 -639.38,7.02l-636.736,0l-3.543,-29.482Zm-955.442,-880.272c-64.855,-2.106 -151.404,-7.239 -192.324,-11.409c-80.528,-8.203 -79.824,-7.783 -68.718,-41.47c3.129,-9.487 18.411,-56.416 33.96,-104.286c15.548,-47.869 33.202,-97.75 39.235,-110.844c6.032,-13.088 10.965,-25.342 10.965,-27.223c-0,-1.887 4.045,-12.651 8.995,-23.929c4.95,-11.278 11.007,-25.555 13.461,-31.736c2.454,-6.174 10.001,-25.123 16.767,-42.115c25.804,-64.766 106.958,-219.37 154.751,-294.806c49.757,-78.535 109.206,-159.104 123.27,-167.053c5.122,-2.898 17.004,8.505 38.029,36.497c35.733,47.58 128.835,192.159 147.335,228.791c7.026,13.916 27.838,54.849 46.249,90.955c18.411,36.106 39.164,79.067 46.119,95.461c6.961,16.395 15.874,37.39 19.818,46.658c3.945,9.267 12.787,30.742 19.653,47.727c6.867,16.992 15.768,38.466 19.783,47.734c13.757,31.771 36.462,95.698 36.462,102.677c-0,3.838 2.271,11.361 5.044,16.725c6.139,11.852 32.742,95.29 35.261,110.572c1.638,9.954 -3.702,11.645 -57.155,18.11c-49.129,5.944 -355.243,20.41 -373.418,17.648c-3.093,-0.473 -58.681,-2.579 -123.542,-4.684Zm814.814,-55.139c-1.704,-2.756 -19.6,-55.268 -39.773,-116.687c-20.168,-61.425 -39.188,-116.072 -42.263,-121.437c-3.07,-5.358 -5.589,-12.242 -5.589,-15.288c-0,-3.046 -6.039,-18.872 -13.426,-35.172c-7.386,-16.299 -26.2,-61.218 -41.813,-99.826c-58.835,-145.466 -182.335,-370.715 -278.625,-508.191c-36.851,-52.607 -36.934,-55.114 -1.679,-50.767c133.188,16.406 197.251,26.708 228.856,36.804c7.718,2.466 32.99,8.581 56.15,13.585c52.849,11.426 77.553,18.215 123.542,33.953c20.073,6.873 57.977,19.553 84.23,28.181c26.247,8.623 64.152,23.119 84.23,32.209c20.073,9.085 45.345,20.375 56.15,25.088c57.616,25.112 93.35,42.949 153.663,76.702c36.645,20.504 67.606,37.283 68.806,37.283c3.898,0 161.476,108.284 187.469,128.83c62.862,49.679 136.465,115.238 200.261,178.36c38.094,37.698 69.262,69.7 69.262,71.119c-0,3.838 -44.457,27.962 -71.409,38.744c-22.545,9.019 -37.969,15.726 -99.157,43.109c-85.177,38.111 -263.999,100.938 -360.087,126.511c-27.797,7.398 -65.702,17.636 -84.231,22.746c-42.369,11.692 -85.868,22.083 -129.154,30.854c-18.53,3.75 -48.852,10.137 -67.381,14.188c-55.481,12.131 -74.768,14.384 -78.032,9.102Zm-1407.24,-13.011c-26.247,-5.843 -60.361,-13.1 -75.803,-16.116c-45.042,-8.8 -69.486,-14.602 -129.154,-30.659c-30.884,-8.31 -63.738,-17.027 -72.999,-19.375c-29.228,-7.411 -99.673,-29.276 -137.577,-42.707c-20.079,-7.115 -52.926,-18.482 -72.999,-25.265c-20.079,-6.784 -44.085,-15.555 -53.346,-19.488c-9.268,-3.939 -49.698,-20.404 -89.849,-36.585c-102.452,-41.299 -144.337,-61.082 -142.213,-67.162c1.005,-2.88 23.923,-29.145 50.933,-58.367c51.601,-55.842 175.575,-165.782 242.631,-215.166c21.764,-16.033 55.463,-40.849 74.879,-55.144c31.506,-23.195 95.953,-63.081 178.078,-110.199c26.732,-15.336 76.181,-39.827 162.848,-80.658c56.025,-26.401 204.223,-80.806 252.69,-92.777c15.442,-3.808 49.556,-12.573 75.803,-19.475c56.853,-14.945 91.44,-22.102 162.848,-33.694c29.34,-4.76 61.52,-9.989 71.509,-11.615c15.661,-2.549 17.671,-1.567 14.578,7.109c-1.981,5.536 -11.645,20.173 -21.48,32.522c-76.808,96.449 -229.49,371.821 -292.671,527.844c-40.566,100.175 -43.121,106.444 -51.489,126.345c-6.79,16.14 -24.231,69.368 -54.293,165.658c-24.479,78.422 -26.933,83.999 -37.372,84.916c-4.299,0.378 -29.299,-4.099 -55.552,-9.942Z" style="fill:#00d9da;fill-rule:nonzero;"/></g></svg>